<svg id="Layer_1" data-name="Layer 1" xmlns="http://www.w3.org/2000/svg" viewBox="0 0 150 70"><defs><style>.cls-1{fill:#5d5d5c;}.cls-1,.cls-2{fill-rule:evenodd;}.cls-2{fill:#fbc42a;}.cls-3{fill:none;}</style></defs><title>Untitled-1</title><path class="cls-1" d="M139.08,30.28H127.74A4.83,4.83,0,0,0,123,35.05a4.76,4.76,0,0,0,4.77,4.67h18.8l-7.46,7.56H127.74a12.28,12.28,0,0,1,0-24.56h18.8ZM65.7,22.72a12.28,12.28,0,1,1,0,24.56H46.91V35h7.56v4.77H65.7a4.69,4.69,0,0,0,4.78-4.67,4.77,4.77,0,0,0-4.78-4.77H46.91l7.56-7.56H65.7ZM89.27,47.28V38.83h14.91v8.45h7.56V22.72h-7.56v8.55H89.27V22.72H81.81V47.28Z"/><path class="cls-2" d="M43.13,29.08A12.22,12.22,0,0,0,32.4,22.72H21.76L14.2,30.28H32.4a4.77,4.77,0,0,1,4.77,4.77ZM3.46,41A12.16,12.16,0,0,0,14.2,47.28H24.94l7.46-7.56H14.2a4.69,4.69,0,0,1-4.77-4.67Z"/><rect class="cls-3" width="150" height="70"/></svg>