<?xml version="1.0" encoding="utf-8"?>
<!-- Generator: Adobe Illustrator 27.9.1, SVG Export Plug-In . SVG Version: 6.00 Build 0)  -->
<svg version="1.1" id="Layer_1" xmlns="http://www.w3.org/2000/svg" xmlns:xlink="http://www.w3.org/1999/xlink" x="0px" y="0px"
	 viewBox="0 0 340 200" style="enable-background:new 0 0 340 200;" xml:space="preserve">
<style type="text/css">
	.st0{fill-rule:evenodd;clip-rule:evenodd;fill:#4D4D4F;}
	.st1{fill-rule:evenodd;clip-rule:evenodd;fill:#56C4CF;}
	.st2{fill:#231F20;}
	.st3{fill-rule:evenodd;clip-rule:evenodd;fill:#0094D9;}
	.st4{fill:#0094D9;}
	.st5{fill:#56C4CF;}
</style>
<path class="st0" d="M4.8,177.5l-2.5-10.6h2.2l1.6,7.3l1.9-7.3h2.5l1.9,7.4l1.6-7.4h2.2l-2.6,10.6h-2.3l-2.1-7.9l-2.1,7.9H4.8
	L4.8,177.5z M21.5,175.1l2,0.3c-0.3,0.7-0.7,1.3-1.2,1.7c-0.6,0.4-1.3,0.6-2.1,0.6c-1.3,0-2.3-0.4-3-1.3c-0.5-0.7-0.8-1.6-0.8-2.7
	c0-1.3,0.3-2.3,1-3c0.7-0.7,1.5-1.1,2.5-1.1c1.1,0,2,0.4,2.7,1.1c0.7,0.8,1,1.9,0.9,3.5h-5.1c0,0.6,0.2,1.1,0.5,1.4
	c0.3,0.3,0.7,0.5,1.2,0.5c0.3,0,0.6-0.1,0.8-0.3C21.2,175.7,21.4,175.5,21.5,175.1L21.5,175.1z M21.6,173c0-0.6-0.2-1-0.5-1.3
	c-0.3-0.3-0.6-0.5-1.1-0.5c-0.4,0-0.8,0.2-1.1,0.5c-0.3,0.3-0.4,0.8-0.4,1.3H21.6L21.6,173z M30.9,172.2l-1.8-0.3
	c0.2-0.7,0.6-1.3,1.1-1.7c0.5-0.4,1.3-0.5,2.3-0.5c0.9,0,1.6,0.1,2,0.3c0.4,0.2,0.8,0.5,0.9,0.8c0.2,0.3,0.3,0.9,0.3,1.8l0,2.4
	c0,0.7,0,1.2,0.1,1.5c0.1,0.3,0.2,0.7,0.4,1h-2c-0.1-0.1-0.1-0.3-0.2-0.6c0-0.1-0.1-0.2-0.1-0.2c-0.3,0.3-0.7,0.6-1.1,0.8
	c-0.4,0.2-0.8,0.3-1.3,0.3c-0.8,0-1.4-0.2-1.9-0.6c-0.5-0.4-0.7-1-0.7-1.6c0-0.4,0.1-0.8,0.3-1.2c0.2-0.3,0.5-0.6,0.9-0.8
	c0.4-0.2,0.9-0.3,1.6-0.5c0.9-0.2,1.6-0.3,2-0.5v-0.2c0-0.4-0.1-0.7-0.3-0.8c-0.2-0.2-0.6-0.3-1.1-0.3c-0.4,0-0.6,0.1-0.8,0.2
	C31.2,171.6,31.1,171.8,30.9,172.2L30.9,172.2z M33.7,173.8c-0.3,0.1-0.7,0.2-1.2,0.3c-0.6,0.1-0.9,0.2-1.1,0.4
	c-0.3,0.2-0.4,0.4-0.4,0.7c0,0.3,0.1,0.5,0.3,0.7c0.2,0.2,0.5,0.3,0.8,0.3c0.4,0,0.7-0.1,1.1-0.4c0.2-0.2,0.4-0.4,0.5-0.7
	c0.1-0.2,0.1-0.5,0.1-1V173.8L33.7,173.8z M37.7,177.5v-10.6h2v10.6H37.7L37.7,177.5z M43.2,177.5l-2.4-7.7h2l1.4,5l1.3-5h2l1.3,5
	l1.5-5h2l-2.5,7.7h-2l-1.3-4.9l-1.3,4.9H43.2L43.2,177.5z M54.9,172.2l-1.8-0.3c0.2-0.7,0.6-1.3,1.1-1.7c0.5-0.4,1.3-0.5,2.3-0.5
	c0.9,0,1.6,0.1,2,0.3c0.4,0.2,0.8,0.5,0.9,0.8c0.2,0.3,0.3,0.9,0.3,1.8l0,2.4c0,0.7,0,1.2,0.1,1.5c0.1,0.3,0.2,0.7,0.4,1h-2
	c-0.1-0.1-0.1-0.3-0.2-0.6c0-0.1-0.1-0.2-0.1-0.2c-0.3,0.3-0.7,0.6-1.1,0.8c-0.4,0.2-0.8,0.3-1.3,0.3c-0.8,0-1.4-0.2-1.9-0.6
	c-0.5-0.4-0.7-1-0.7-1.6c0-0.4,0.1-0.8,0.3-1.2c0.2-0.3,0.5-0.6,0.9-0.8c0.4-0.2,0.9-0.3,1.6-0.5c0.9-0.2,1.6-0.3,2-0.5v-0.2
	c0-0.4-0.1-0.7-0.3-0.8c-0.2-0.2-0.6-0.3-1.1-0.3c-0.4,0-0.6,0.1-0.8,0.2C55.1,171.6,55,171.8,54.9,172.2L54.9,172.2z M57.6,173.8
	c-0.3,0.1-0.7,0.2-1.2,0.3c-0.6,0.1-0.9,0.2-1.1,0.4c-0.3,0.2-0.4,0.4-0.4,0.7c0,0.3,0.1,0.5,0.3,0.7c0.2,0.2,0.5,0.3,0.8,0.3
	c0.4,0,0.7-0.1,1.1-0.4c0.2-0.2,0.4-0.4,0.5-0.7c0.1-0.2,0.1-0.5,0.1-1V173.8L57.6,173.8z M60.6,169.8h2.2l1.8,5.5l1.8-5.5h2.1
	l-2.7,7.4l-0.5,1.3c-0.2,0.4-0.3,0.8-0.5,1c-0.2,0.2-0.3,0.4-0.6,0.6c-0.2,0.1-0.5,0.3-0.8,0.3c-0.3,0.1-0.7,0.1-1,0.1
	c-0.4,0-0.8,0-1.2-0.1l-0.2-1.6c0.3,0.1,0.6,0.1,0.9,0.1c0.5,0,0.8-0.1,1.1-0.4c0.2-0.3,0.4-0.6,0.5-1.1L60.6,169.8L60.6,169.8z
	 M69.1,175.3l2-0.3c0.1,0.4,0.3,0.7,0.5,0.9c0.3,0.2,0.6,0.3,1.1,0.3c0.5,0,0.9-0.1,1.2-0.3c0.2-0.1,0.3-0.3,0.3-0.5
	c0-0.2,0-0.3-0.1-0.4c-0.1-0.1-0.3-0.2-0.7-0.3c-1.6-0.4-2.7-0.7-3.1-1c-0.6-0.4-0.9-1-0.9-1.7c0-0.7,0.3-1.2,0.8-1.7
	c0.5-0.5,1.3-0.7,2.4-0.7c1.1,0,1.8,0.2,2.3,0.5c0.5,0.3,0.9,0.9,1.1,1.5l-1.9,0.4c-0.1-0.3-0.2-0.5-0.5-0.7c-0.2-0.2-0.6-0.2-1-0.2
	c-0.5,0-0.9,0.1-1.2,0.2c-0.2,0.1-0.2,0.2-0.2,0.4c0,0.1,0.1,0.3,0.2,0.4c0.2,0.1,0.8,0.3,1.9,0.6c1.1,0.2,1.8,0.5,2.3,0.9
	c0.4,0.4,0.6,0.9,0.6,1.5c0,0.7-0.3,1.3-0.9,1.8c-0.6,0.5-1.5,0.8-2.6,0.8c-1,0-1.9-0.2-2.5-0.6C69.7,176.6,69.3,176.1,69.1,175.3
	L69.1,175.3z M81.3,169.8h1.1v-0.6c0-0.6,0.1-1.1,0.2-1.4c0.1-0.3,0.4-0.6,0.8-0.8c0.4-0.2,0.8-0.3,1.4-0.3c0.6,0,1.1,0.1,1.7,0.3
	l-0.3,1.4c-0.3-0.1-0.6-0.1-0.9-0.1c-0.3,0-0.5,0.1-0.6,0.2c-0.1,0.1-0.2,0.4-0.2,0.8v0.5H86v1.6h-1.5v6.1h-2v-6.1h-1.1V169.8
	L81.3,169.8z M87.2,168.8v-1.9h2v1.9H87.2L87.2,168.8z M87.2,177.5v-7.7h2v7.7H87.2L87.2,177.5z M98.3,177.5h-2v-3.9
	c0-0.8,0-1.4-0.1-1.6c-0.1-0.2-0.2-0.4-0.4-0.6c-0.2-0.1-0.4-0.2-0.7-0.2c-0.4,0-0.7,0.1-0.9,0.3c-0.3,0.2-0.5,0.4-0.6,0.8
	c-0.1,0.3-0.2,0.9-0.2,1.8v3.5h-2v-7.7h1.9v1.1c0.7-0.9,1.5-1.3,2.5-1.3c0.4,0,0.9,0.1,1.2,0.2c0.4,0.2,0.7,0.4,0.8,0.6
	c0.2,0.3,0.3,0.5,0.4,0.9c0.1,0.3,0.1,0.8,0.1,1.4V177.5L98.3,177.5z M107.4,177.5h-1.9v-1.1c-0.3,0.4-0.7,0.8-1.1,1
	c-0.4,0.2-0.9,0.3-1.3,0.3c-0.9,0-1.6-0.4-2.3-1.1c-0.6-0.7-0.9-1.7-0.9-3c0-1.3,0.3-2.3,0.9-3c0.6-0.7,1.4-1,2.3-1
	c0.9,0,1.6,0.4,2.2,1.1v-3.8h2V177.5L107.4,177.5z M102,173.5c0,0.8,0.1,1.4,0.3,1.8c0.3,0.5,0.8,0.8,1.4,0.8c0.5,0,0.9-0.2,1.2-0.6
	c0.3-0.4,0.5-1,0.5-1.8c0-0.9-0.2-1.5-0.5-1.9c-0.3-0.4-0.7-0.6-1.2-0.6c-0.5,0-0.9,0.2-1.2,0.6C102.1,172.2,102,172.8,102,173.5
	L102,173.5z M115,172.2l-1.8-0.3c0.2-0.7,0.6-1.3,1.1-1.7c0.5-0.4,1.3-0.5,2.3-0.5c0.9,0,1.6,0.1,2,0.3c0.4,0.2,0.8,0.5,0.9,0.8
	c0.2,0.3,0.3,0.9,0.3,1.8l0,2.4c0,0.7,0,1.2,0.1,1.5c0.1,0.3,0.2,0.7,0.4,1h-2c-0.1-0.1-0.1-0.3-0.2-0.6c0-0.1-0.1-0.2-0.1-0.2
	c-0.3,0.3-0.7,0.6-1.1,0.8c-0.4,0.2-0.8,0.3-1.3,0.3c-0.8,0-1.4-0.2-1.9-0.6c-0.5-0.4-0.7-1-0.7-1.6c0-0.4,0.1-0.8,0.3-1.2
	c0.2-0.3,0.5-0.6,0.9-0.8c0.4-0.2,0.9-0.3,1.6-0.5c0.9-0.2,1.6-0.3,2-0.5v-0.2c0-0.4-0.1-0.7-0.3-0.8c-0.2-0.2-0.6-0.3-1.1-0.3
	c-0.4,0-0.6,0.1-0.8,0.2C115.3,171.6,115.2,171.8,115,172.2L115,172.2z M117.8,173.8c-0.3,0.1-0.7,0.2-1.2,0.3
	c-0.6,0.1-0.9,0.2-1.1,0.4c-0.3,0.2-0.4,0.4-0.4,0.7c0,0.3,0.1,0.5,0.3,0.7c0.2,0.2,0.5,0.3,0.8,0.3c0.4,0,0.7-0.1,1.1-0.4
	c0.2-0.2,0.4-0.4,0.5-0.7c0.1-0.2,0.1-0.5,0.1-1V173.8L117.8,173.8z M125.8,177.5v-10.6h2v3.8c0.6-0.7,1.4-1.1,2.2-1.1
	c0.9,0,1.7,0.3,2.3,1c0.6,0.7,0.9,1.7,0.9,2.9c0,1.3-0.3,2.3-0.9,3c-0.6,0.7-1.4,1.1-2.3,1.1c-0.4,0-0.9-0.1-1.3-0.3
	c-0.4-0.2-0.8-0.5-1.1-1v1.1H125.8L125.8,177.5z M127.8,173.5c0,0.8,0.1,1.4,0.4,1.8c0.4,0.5,0.8,0.8,1.4,0.8c0.4,0,0.8-0.2,1.1-0.6
	c0.3-0.4,0.5-1,0.5-1.8c0-0.9-0.2-1.5-0.5-1.9c-0.3-0.4-0.7-0.6-1.2-0.6c-0.5,0-0.9,0.2-1.2,0.6C128,172.2,127.8,172.7,127.8,173.5
	L127.8,173.5z M139.4,175.1l2,0.3c-0.3,0.7-0.7,1.3-1.2,1.7c-0.6,0.4-1.3,0.6-2.1,0.6c-1.3,0-2.3-0.4-3-1.3
	c-0.5-0.7-0.8-1.6-0.8-2.7c0-1.3,0.3-2.3,1-3c0.7-0.7,1.5-1.1,2.5-1.1c1.1,0,2,0.4,2.7,1.1c0.7,0.8,1,1.9,0.9,3.5h-5.1
	c0,0.6,0.2,1.1,0.5,1.4c0.3,0.3,0.7,0.5,1.2,0.5c0.3,0,0.6-0.1,0.8-0.3C139.1,175.7,139.3,175.5,139.4,175.1L139.4,175.1z
	 M139.5,173c0-0.6-0.2-1-0.5-1.3c-0.3-0.3-0.6-0.5-1.1-0.5c-0.4,0-0.8,0.2-1.1,0.5c-0.3,0.3-0.4,0.8-0.4,1.3H139.5L139.5,173z
	 M146.7,169.8v1.6h-1.4v3.1c0,0.6,0,1,0,1.1c0,0.1,0.1,0.2,0.2,0.3c0.1,0.1,0.2,0.1,0.3,0.1c0.2,0,0.5-0.1,0.8-0.2l0.2,1.6
	c-0.5,0.2-1,0.3-1.6,0.3c-0.4,0-0.7-0.1-1-0.2c-0.3-0.1-0.5-0.3-0.6-0.5c-0.1-0.2-0.2-0.5-0.3-0.8c0-0.2-0.1-0.7-0.1-1.4v-3.4h-0.9
	v-1.6h0.9v-1.5l2-1.2v2.7H146.7L146.7,169.8z M151.7,169.8v1.6h-1.4v3.1c0,0.6,0,1,0,1.1c0,0.1,0.1,0.2,0.2,0.3
	c0.1,0.1,0.2,0.1,0.3,0.1c0.2,0,0.5-0.1,0.8-0.2l0.2,1.6c-0.5,0.2-1,0.3-1.6,0.3c-0.4,0-0.7-0.1-1-0.2c-0.3-0.1-0.5-0.3-0.6-0.5
	c-0.1-0.2-0.2-0.5-0.3-0.8c0-0.2-0.1-0.7-0.1-1.4v-3.4h-0.9v-1.6h0.9v-1.5l2-1.2v2.7H151.7L151.7,169.8z M157.6,175.1l2,0.3
	c-0.3,0.7-0.7,1.3-1.2,1.7c-0.6,0.4-1.3,0.6-2.1,0.6c-1.3,0-2.3-0.4-3-1.3c-0.5-0.7-0.8-1.6-0.8-2.7c0-1.3,0.3-2.3,1-3
	c0.7-0.7,1.5-1.1,2.5-1.1c1.1,0,2,0.4,2.7,1.1c0.7,0.8,1,1.9,0.9,3.5h-5.1c0,0.6,0.2,1.1,0.5,1.4c0.3,0.3,0.7,0.5,1.2,0.5
	c0.3,0,0.6-0.1,0.8-0.3C157.3,175.7,157.4,175.5,157.6,175.1L157.6,175.1z M157.7,173c0-0.6-0.2-1-0.5-1.3c-0.3-0.3-0.6-0.5-1.1-0.5
	c-0.4,0-0.8,0.2-1.1,0.5c-0.3,0.3-0.4,0.8-0.4,1.3H157.7L157.7,173z M163.3,177.5h-2v-7.7h1.9v1.1c0.3-0.5,0.6-0.9,0.9-1
	c0.3-0.2,0.6-0.2,0.9-0.2c0.5,0,0.9,0.1,1.3,0.4l-0.6,1.8c-0.3-0.2-0.7-0.3-1-0.3c-0.3,0-0.5,0.1-0.7,0.2c-0.2,0.2-0.4,0.4-0.5,0.9
	c-0.1,0.4-0.2,1.3-0.2,2.6V177.5L163.3,177.5z M172.7,177.5l-2.4-7.7h2l1.4,5l1.3-5h2l1.3,5l1.5-5h2l-2.5,7.7h-2l-1.3-4.9l-1.3,4.9
	H172.7L172.7,177.5z M184.3,172.2l-1.8-0.3c0.2-0.7,0.6-1.3,1.1-1.7c0.5-0.4,1.3-0.5,2.3-0.5c0.9,0,1.6,0.1,2,0.3
	c0.4,0.2,0.8,0.5,0.9,0.8c0.2,0.3,0.3,0.9,0.3,1.8l0,2.4c0,0.7,0,1.2,0.1,1.5c0.1,0.3,0.2,0.7,0.4,1h-2c-0.1-0.1-0.1-0.3-0.2-0.6
	c0-0.1-0.1-0.2-0.1-0.2c-0.3,0.3-0.7,0.6-1.1,0.8c-0.4,0.2-0.8,0.3-1.3,0.3c-0.8,0-1.4-0.2-1.9-0.6c-0.5-0.4-0.7-1-0.7-1.6
	c0-0.4,0.1-0.8,0.3-1.2c0.2-0.3,0.5-0.6,0.9-0.8c0.4-0.2,0.9-0.3,1.6-0.5c0.9-0.2,1.6-0.3,2-0.5v-0.2c0-0.4-0.1-0.7-0.3-0.8
	c-0.2-0.2-0.6-0.3-1.1-0.3c-0.4,0-0.6,0.1-0.8,0.2C184.6,171.6,184.4,171.8,184.3,172.2L184.3,172.2z M187,173.8
	c-0.3,0.1-0.7,0.2-1.2,0.3c-0.6,0.1-0.9,0.2-1.1,0.4c-0.3,0.2-0.4,0.4-0.4,0.7c0,0.3,0.1,0.5,0.3,0.7c0.2,0.2,0.5,0.3,0.8,0.3
	c0.4,0,0.7-0.1,1.1-0.4c0.2-0.2,0.4-0.4,0.5-0.7c0.1-0.2,0.1-0.5,0.1-1V173.8L187,173.8z M190.1,169.8h2.2l1.8,5.5l1.8-5.5h2.1
	l-2.7,7.4l-0.5,1.3c-0.2,0.4-0.3,0.8-0.5,1c-0.2,0.2-0.3,0.4-0.6,0.6c-0.2,0.1-0.5,0.3-0.8,0.3c-0.3,0.1-0.7,0.1-1,0.1
	c-0.4,0-0.8,0-1.2-0.1l-0.2-1.6c0.3,0.1,0.6,0.1,0.9,0.1c0.5,0,0.8-0.1,1.1-0.4c0.2-0.3,0.4-0.6,0.5-1.1L190.1,169.8L190.1,169.8z"
	/>
<path class="st1" d="M142.4,53.9c13.7,9,14.8,28.5,27.5,39.5c16.7,14.6,32.9,17.6,54.1,16.9c-45.7,11.9-66.1-9-77.7-37.5
	c-6.4-11.3-4.5-23.5-18.4-19c-11.4,3.8-19.9,11.6-27.3,18.2c1-1.8,4.3-5.5,7.3-8.3c11.9-9.6,21.4-13.8,27.1-13.4
	C138.2,50.6,139.9,52.3,142.4,53.9L142.4,53.9z"/>
<path class="st2" d="M69.6,131.3H20.3c-1.2,0-2.3,0.2-3.2,0.7c-0.9,0.5-1.3,1.1-1.3,1.8c0,1.8,3.6,2.7,10.7,2.7c1.6,0,4.3,0,8.1-0.1
	c3.9-0.1,6.8-0.1,8.9-0.1c7.9,0,13.8,0.6,17.8,1.8c5.3,1.6,7.9,4.5,7.9,8.5c0,2.7-1.8,5.1-5.4,7.1c-3.6,2-7.8,3-12.6,3h-49V149h49
	c1.2,0,2.3-0.2,3.2-0.7c0.9-0.5,1.4-1.1,1.4-1.8c0-1.8-3.6-2.7-10.7-2.7c-1.6,0-4.3,0-8.2,0.1c-3.9,0.1-6.9,0.1-9,0.1
	c-7.8,0-13.7-0.6-17.7-1.8c-5.3-1.6-7.9-4.4-7.9-8.4c0-2.7,1.8-5.1,5.3-7.1c3.5-2,7.7-3,12.6-3h49.3V131.3L69.6,131.3z"/>
<path class="st2" d="M137,156.5h-13.5c0-0.1,0.1-0.9,0.3-2.4c0.2-1.5,0.3-2.7,0.3-3.7c0-4.3-1.5-6.5-4.4-6.5H87.6v12.6H74.2v-32.8
	H118c4.8,0,9.1,1,12.6,3c3.6,2,5.4,4.3,5.4,7.1c0,2.2-1.1,4.3-3.4,6.1c2.9,1.9,4.4,4,4.4,6.5V156.5L137,156.5z M122.9,133.8
	c0-0.7-0.5-1.3-1.4-1.8c-0.9-0.5-1.9-0.7-3.1-0.7H87.6v5h30.8c1.2,0,2.3-0.2,3.2-0.7C122.5,135.1,122.9,134.5,122.9,133.8
	L122.9,133.8z"/>
<path class="st2" d="M198.3,131.3H163c-2.2,0-3.6,0.6-4.2,1.8c-0.2,0.4-0.3,1.5-0.3,3.3h38.1v7.6h-38.1v12.6h-13.4v-22.7
	c0-2.7,1.8-5.1,5.3-7.1c3.5-2,7.7-3,12.6-3h35.3V131.3L198.3,131.3z"/>
<path class="st3" d="M141.9,67.7c-5.8,4.5-41.8,35.2-49.7,27.6c-5.4-5.3,4.1-18,7.1-21.9c-2.1,2-9.3,10.7-10.6,12.7
	c-28.4,46.4,42.4-2.3,53.6-14.2C141.6,70.3,142,69.6,141.9,67.7L141.9,67.7z M278.1,52.2c17.1,34.1-44.8,61.7-78.6,52.7
	c-19.5-6.3-23.7-10.6-28.2-17.1c12.3,7.9,23.6,8.7,44.3,5.4c24-3.8,48.4-18.9,57.1-41.8c2.5-6.8-5.1-10.8-9.5-13.3
	c-33.2-19-83.1,6.2-108.8,25.2c-0.6-1.3-2-3.1-2-3.2c2.4-2,22.3-13.5,26.8-16.5c25.2-16.4,51.7-29.6,80.9-15
	c7.4,4.2,13.1,13,15.5,17.9C276.4,48.5,277.1,50.4,278.1,52.2L278.1,52.2z"/>
<g>
	<path class="st4" d="M255.2,122.7c-8.9,0-16.9,4.1-22.1,10.6l4,11c2.5-7.2,9.4-12.4,17.5-12.4c10.2,0,18.5,8.3,18.5,18.5
		s-8.3,18.5-18.5,18.5c-6.5,0-12.2-3.3-15.5-8.4c0.3,2.8,0.1,7.4-2.6,11.7c5,4.4,11.5,7,18.7,7c15.6,0,28.3-12.7,28.3-28.3
		S270.8,122.7,255.2,122.7z"/>
	<path class="st4" d="M211.5,124.7h25.1c-3.8,2.5-6.8,5.7-9.1,9.6h-8.3l-2.2,10.1c0.6-0.2,1.2-0.3,1.8-0.4c0.6-0.1,1.2-0.1,1.7-0.1
		c1.8,0,3.4,0.2,4.9,0.6l0,0.1c-0.9,4-0.9,7.4-0.5,11.1c-1.4-1.4-3.1-2-5-2c-1.1,0-2.2,0.3-3.3,0.8c-1.1,0.6-2.2,1.4-3.2,2.6
		l-8.4-1.9L211.5,124.7z"/>
	<path class="st5" d="M236.7,150.1c0,0.6-0.1,1.1-0.1,1.7c0,1.7,0.2,3.4,0.5,4.9h-0.1c0.1,0.4,0.1,0.7,0.2,1.1
		c0.1,0.6,0.2,1.3,0.3,2c0.1,0.7,0.1,1.4,0.1,2.1l0,0c0,3.9-1,7.4-2.9,10.4l0,0c-0.7,1.1-1.5,2.1-2.5,3.1c-3.6,3.7-8,5.5-13.2,5.5
		c-4.6,0-8.6-1.3-11.9-4c-3.3-2.7-5.5-6.3-6.5-11h10.9c0.8,1.7,1.9,3,3.3,3.9s2.9,1.3,4.5,1.3c2.3,0,4.2-0.8,5.8-2.5
		c2.5-2.6,2.5-5.4,2.2-8.7l0,0c-0.7-2.6-1.1-5.4-1.1-8.3c0-5.2,1.3-10.1,3.8-14.5c2.5-4.4,6-7.9,10.4-10.4c4.1-2.4,8.5-3.7,13.2-3.8
		c-0.9,0.4-1.8,0.9-2.7,1.4c-4.4,2.6-7.8,6.1-10.3,10.4c-2.5,4.4-3.8,9.2-3.8,14.5C236.7,149.5,236.7,149.8,236.7,150.1L236.7,150.1
		z"/>
</g>
<g>
	<path class="st2" d="M297,124.5l-5.6,9.2v7.3h-2.2V134l-5.6-9.5h2.4l4.3,7.3l4.3-7.3H297z"/>
	<path class="st2" d="M302.4,141.3c-2,0-3.5-0.6-4.6-1.7c-1.1-1.1-1.6-2.7-1.6-4.8c0-2,0.5-3.6,1.6-4.8c1.1-1.2,2.4-1.8,4.2-1.8
		c0.8,0,1.5,0.1,2,0.3c0.6,0.2,1.1,0.6,1.6,1c0.4,0.5,0.8,1.1,1,1.7c0.2,0.7,0.4,1.5,0.4,2.5v1.1h-8.6c0,1.4,0.4,2.5,1.1,3.3
		s1.7,1.1,3,1.1c0.5,0,0.9-0.1,1.4-0.2c0.4-0.1,0.8-0.2,1.2-0.4c0.4-0.2,0.7-0.3,1-0.5c0.3-0.2,0.5-0.3,0.6-0.5h0.1v2.3
		c-0.2,0.1-0.5,0.2-0.9,0.4c-0.4,0.1-0.7,0.3-1,0.3c-0.4,0.1-0.8,0.2-1.1,0.3C303.4,141.3,302.9,141.3,302.4,141.3z M304.9,133.5
		c0-0.6-0.1-1-0.2-1.5c-0.1-0.4-0.3-0.8-0.5-1c-0.2-0.3-0.6-0.5-0.9-0.7c-0.4-0.2-0.9-0.2-1.4-0.2c-0.6,0-1,0.1-1.4,0.2
		c-0.4,0.2-0.7,0.4-1.1,0.7c-0.3,0.3-0.5,0.7-0.7,1.1c-0.2,0.4-0.3,0.9-0.3,1.4H304.9z"/>
	<path class="st2" d="M316,139.7c-0.2,0.1-0.4,0.3-0.7,0.5c-0.3,0.2-0.6,0.4-0.8,0.5c-0.4,0.2-0.7,0.3-1.1,0.4
		c-0.3,0.1-0.8,0.2-1.5,0.2c-0.5,0-1-0.1-1.5-0.3c-0.5-0.2-0.9-0.5-1.2-0.8c-0.3-0.3-0.6-0.8-0.8-1.3c-0.2-0.5-0.3-1-0.3-1.6
		c0-0.9,0.2-1.6,0.5-2.2s0.9-1.1,1.7-1.4c0.7-0.3,1.5-0.5,2.5-0.7c0.9-0.1,2-0.2,3.1-0.3v-0.4c0-0.5-0.1-0.9-0.2-1.2
		c-0.1-0.3-0.4-0.5-0.6-0.7c-0.3-0.2-0.6-0.3-1-0.3c-0.4-0.1-0.8-0.1-1.2-0.1c-0.5,0-1,0.1-1.7,0.2c-0.7,0.1-1.3,0.4-2,0.6h-0.1
		v-2.1c0.4-0.1,0.9-0.2,1.7-0.4c0.7-0.1,1.4-0.2,2.1-0.2c0.9,0,1.6,0.1,2.2,0.2c0.6,0.1,1.1,0.4,1.6,0.7c0.5,0.3,0.8,0.8,1,1.3
		c0.2,0.5,0.3,1.2,0.3,2v8.5H316V139.7z M316,138v-3.4c-0.5,0-1.1,0.1-1.9,0.2c-0.8,0.1-1.4,0.2-1.8,0.3c-0.6,0.2-1,0.4-1.4,0.8
		s-0.5,0.8-0.5,1.5c0,0.7,0.2,1.2,0.6,1.6c0.4,0.4,1,0.5,1.8,0.5c0.7,0,1.3-0.1,1.8-0.4C315,138.8,315.5,138.4,316,138z"/>
	<path class="st2" d="M327.6,130.9h-0.1c-0.2,0-0.3-0.1-0.5-0.1c-0.2,0-0.4,0-0.6,0c-0.6,0-1.1,0.1-1.7,0.4
		c-0.6,0.2-1.1,0.6-1.6,1.1v8.8H321v-12.4h2.1v1.8c0.8-0.7,1.4-1.2,2-1.4c0.6-0.3,1.1-0.4,1.7-0.4c0.2,0,0.4,0,0.5,0
		c0.1,0,0.2,0,0.4,0V130.9z"/>
	<path class="st2" d="M332.5,141.3c-0.8,0-1.6-0.1-2.3-0.3c-0.7-0.2-1.3-0.5-1.8-0.7V138h0.1c0.2,0.1,0.4,0.3,0.6,0.5
		c0.2,0.2,0.6,0.3,1,0.5c0.4,0.2,0.7,0.3,1.2,0.4c0.4,0.1,0.9,0.2,1.3,0.2c0.3,0,0.7,0,1.1-0.1c0.4-0.1,0.7-0.2,0.8-0.3
		c0.3-0.2,0.4-0.4,0.6-0.5s0.2-0.5,0.2-0.9c0-0.5-0.1-0.9-0.4-1.1s-0.7-0.5-1.4-0.6c-0.3-0.1-0.6-0.1-1-0.2
		c-0.4-0.1-0.8-0.2-1.2-0.3c-0.9-0.3-1.6-0.7-2.1-1.3c-0.4-0.6-0.6-1.3-0.6-2.1c0-1.1,0.4-2,1.3-2.7c0.8-0.7,2-1.1,3.4-1.1
		c0.7,0,1.4,0.1,2.1,0.3c0.7,0.2,1.3,0.4,1.8,0.6v2.2h-0.1c-0.5-0.4-1.1-0.8-1.8-1c-0.7-0.2-1.3-0.4-2-0.4c-0.7,0-1.3,0.1-1.7,0.4
		c-0.5,0.3-0.7,0.7-0.7,1.3c0,0.5,0.1,0.9,0.4,1.2c0.3,0.3,0.7,0.5,1.4,0.6c0.3,0.1,0.7,0.2,1,0.2c0.4,0.1,0.8,0.2,1.2,0.3
		c0.9,0.2,1.6,0.6,2.1,1.1c0.5,0.5,0.7,1.3,0.7,2.2c0,0.5-0.1,1-0.3,1.5s-0.5,0.9-0.9,1.2c-0.4,0.4-0.9,0.7-1.5,0.8
		C334.1,141.2,333.4,141.3,332.5,141.3z"/>
</g>
</svg>
