<svg width="587" height="196" viewBox="0 0 587 196" fill="none" xmlns="http://www.w3.org/2000/svg">
<path d="M203.836 29C203.836 28.8073 203.807 28.6354 203.75 28.4844C203.693 28.3281 203.589 28.1849 203.438 28.0547C203.286 27.9245 203.073 27.7943 202.797 27.6641C202.521 27.5286 202.159 27.3906 201.711 27.25C201.201 27.0833 200.714 26.8958 200.25 26.6875C199.792 26.474 199.383 26.2266 199.023 25.9453C198.664 25.6641 198.38 25.3359 198.172 24.9609C197.969 24.5859 197.867 24.1484 197.867 23.6484C197.867 23.1641 197.974 22.7266 198.188 22.3359C198.401 21.9453 198.701 21.612 199.086 21.3359C199.471 21.0547 199.924 20.8411 200.445 20.6953C200.966 20.5443 201.539 20.4688 202.164 20.4688C202.997 20.4688 203.729 20.6172 204.359 20.9141C204.995 21.2057 205.49 21.6172 205.844 22.1484C206.198 22.6745 206.375 23.2865 206.375 23.9844H203.844C203.844 23.6771 203.779 23.4062 203.648 23.1719C203.523 22.9323 203.331 22.7448 203.07 22.6094C202.815 22.474 202.495 22.4062 202.109 22.4062C201.734 22.4062 201.419 22.4635 201.164 22.5781C200.914 22.6875 200.724 22.8385 200.594 23.0312C200.469 23.224 200.406 23.4349 200.406 23.6641C200.406 23.8464 200.453 24.013 200.547 24.1641C200.646 24.3099 200.786 24.4479 200.969 24.5781C201.156 24.7031 201.385 24.8229 201.656 24.9375C201.927 25.0521 202.237 25.1615 202.586 25.2656C203.195 25.4583 203.734 25.6719 204.203 25.9062C204.677 26.1406 205.076 26.4062 205.398 26.7031C205.721 27 205.964 27.3359 206.125 27.7109C206.292 28.0859 206.375 28.5104 206.375 28.9844C206.375 29.4896 206.276 29.9375 206.078 30.3281C205.885 30.7188 205.604 31.0521 205.234 31.3281C204.87 31.599 204.432 31.8047 203.922 31.9453C203.411 32.0859 202.841 32.1562 202.211 32.1562C201.638 32.1562 201.073 32.0833 200.516 31.9375C199.958 31.7865 199.453 31.5573 199 31.25C198.552 30.9427 198.193 30.5521 197.922 30.0781C197.656 29.599 197.523 29.0312 197.523 28.375H200.07C200.07 28.7188 200.12 29.0104 200.219 29.25C200.318 29.4844 200.458 29.6745 200.641 29.8203C200.828 29.9661 201.055 30.0703 201.32 30.1328C201.586 30.1953 201.883 30.2266 202.211 30.2266C202.591 30.2266 202.898 30.1745 203.133 30.0703C203.372 29.9609 203.549 29.8125 203.664 29.625C203.779 29.4375 203.836 29.2292 203.836 29ZM207.398 27.8594V27.6953C207.398 27.0755 207.487 26.5052 207.664 25.9844C207.841 25.4583 208.102 25.0026 208.445 24.6172C208.789 24.2318 209.211 23.9323 209.711 23.7188C210.211 23.5 210.784 23.3906 211.43 23.3906C212.086 23.3906 212.664 23.5 213.164 23.7188C213.669 23.9323 214.094 24.2318 214.438 24.6172C214.781 25.0026 215.042 25.4583 215.219 25.9844C215.396 26.5052 215.484 27.0755 215.484 27.6953V27.8594C215.484 28.474 215.396 29.0443 215.219 29.5703C215.042 30.0911 214.781 30.5469 214.438 30.9375C214.094 31.3229 213.672 31.6224 213.172 31.8359C212.672 32.0495 212.096 32.1562 211.445 32.1562C210.799 32.1562 210.224 32.0495 209.719 31.8359C209.214 31.6224 208.789 31.3229 208.445 30.9375C208.102 30.5469 207.841 30.0911 207.664 29.5703C207.487 29.0443 207.398 28.474 207.398 27.8594ZM209.844 27.6953V27.8594C209.844 28.1927 209.87 28.5052 209.922 28.7969C209.979 29.0885 210.07 29.3438 210.195 29.5625C210.32 29.7812 210.484 29.9531 210.688 30.0781C210.896 30.1979 211.148 30.2578 211.445 30.2578C211.742 30.2578 211.992 30.1979 212.195 30.0781C212.398 29.9531 212.562 29.7812 212.688 29.5625C212.812 29.3438 212.901 29.0885 212.953 28.7969C213.01 28.5052 213.039 28.1927 213.039 27.8594V27.6953C213.039 27.3672 213.01 27.0599 212.953 26.7734C212.901 26.4818 212.812 26.224 212.688 26C212.562 25.776 212.396 25.6016 212.188 25.4766C211.984 25.3516 211.732 25.2891 211.43 25.2891C211.138 25.2891 210.891 25.3516 210.688 25.4766C210.484 25.6016 210.32 25.776 210.195 26C210.07 26.224 209.979 26.4818 209.922 26.7734C209.87 27.0599 209.844 27.3672 209.844 27.6953ZM221.727 29.9609V23.5469H224.18V32H221.883L221.727 29.9609ZM221.984 28.2344L222.656 28.2188C222.656 28.7865 222.589 29.3099 222.453 29.7891C222.323 30.2682 222.125 30.6849 221.859 31.0391C221.599 31.3932 221.273 31.6693 220.883 31.8672C220.497 32.0599 220.047 32.1562 219.531 32.1562C219.115 32.1562 218.732 32.099 218.383 31.9844C218.039 31.8646 217.742 31.6797 217.492 31.4297C217.242 31.1745 217.049 30.849 216.914 30.4531C216.779 30.0521 216.711 29.5729 216.711 29.0156V23.5469H219.148V29.0312C219.148 29.25 219.174 29.4375 219.227 29.5938C219.284 29.7448 219.359 29.8698 219.453 29.9688C219.552 30.0677 219.672 30.1406 219.812 30.1875C219.958 30.2344 220.117 30.2578 220.289 30.2578C220.721 30.2578 221.06 30.1693 221.305 29.9922C221.555 29.8099 221.729 29.5677 221.828 29.2656C221.932 28.9583 221.984 28.6146 221.984 28.2344ZM228.211 25.5156V32H225.773V23.5469H228.062L228.211 25.5156ZM230.734 23.4844L230.695 25.7578C230.591 25.7422 230.456 25.7292 230.289 25.7188C230.122 25.7031 229.979 25.6953 229.859 25.6953C229.547 25.6953 229.276 25.7344 229.047 25.8125C228.823 25.8854 228.635 25.9948 228.484 26.1406C228.339 26.2865 228.229 26.4688 228.156 26.6875C228.083 26.901 228.047 27.1484 228.047 27.4297L227.586 27.2031C227.586 26.6458 227.641 26.1354 227.75 25.6719C227.859 25.2083 228.018 24.8073 228.227 24.4688C228.435 24.125 228.69 23.8594 228.992 23.6719C229.294 23.4844 229.638 23.3906 230.023 23.3906C230.148 23.3906 230.276 23.3984 230.406 23.4141C230.536 23.4297 230.646 23.4531 230.734 23.4844Z" fill="#2C4D38"/>
<path d="M527.836 29C527.836 28.8073 527.807 28.6354 527.75 28.4844C527.693 28.3281 527.589 28.1849 527.438 28.0547C527.286 27.9245 527.073 27.7943 526.797 27.6641C526.521 27.5286 526.159 27.3906 525.711 27.25C525.201 27.0833 524.714 26.8958 524.25 26.6875C523.792 26.474 523.383 26.2266 523.023 25.9453C522.664 25.6641 522.38 25.3359 522.172 24.9609C521.969 24.5859 521.867 24.1484 521.867 23.6484C521.867 23.1641 521.974 22.7266 522.188 22.3359C522.401 21.9453 522.701 21.612 523.086 21.3359C523.471 21.0547 523.924 20.8411 524.445 20.6953C524.966 20.5443 525.539 20.4688 526.164 20.4688C526.997 20.4688 527.729 20.6172 528.359 20.9141C528.995 21.2057 529.49 21.6172 529.844 22.1484C530.198 22.6745 530.375 23.2865 530.375 23.9844H527.844C527.844 23.6771 527.779 23.4062 527.648 23.1719C527.523 22.9323 527.331 22.7448 527.07 22.6094C526.815 22.474 526.495 22.4062 526.109 22.4062C525.734 22.4062 525.419 22.4635 525.164 22.5781C524.914 22.6875 524.724 22.8385 524.594 23.0312C524.469 23.224 524.406 23.4349 524.406 23.6641C524.406 23.8464 524.453 24.013 524.547 24.1641C524.646 24.3099 524.786 24.4479 524.969 24.5781C525.156 24.7031 525.385 24.8229 525.656 24.9375C525.927 25.0521 526.237 25.1615 526.586 25.2656C527.195 25.4583 527.734 25.6719 528.203 25.9062C528.677 26.1406 529.076 26.4062 529.398 26.7031C529.721 27 529.964 27.3359 530.125 27.7109C530.292 28.0859 530.375 28.5104 530.375 28.9844C530.375 29.4896 530.276 29.9375 530.078 30.3281C529.885 30.7188 529.604 31.0521 529.234 31.3281C528.87 31.599 528.432 31.8047 527.922 31.9453C527.411 32.0859 526.841 32.1562 526.211 32.1562C525.638 32.1562 525.073 32.0833 524.516 31.9375C523.958 31.7865 523.453 31.5573 523 31.25C522.552 30.9427 522.193 30.5521 521.922 30.0781C521.656 29.599 521.523 29.0312 521.523 28.375H524.07C524.07 28.7188 524.12 29.0104 524.219 29.25C524.318 29.4844 524.458 29.6745 524.641 29.8203C524.828 29.9661 525.055 30.0703 525.32 30.1328C525.586 30.1953 525.883 30.2266 526.211 30.2266C526.591 30.2266 526.898 30.1745 527.133 30.0703C527.372 29.9609 527.549 29.8125 527.664 29.625C527.779 29.4375 527.836 29.2292 527.836 29ZM536.227 29.9844V26.3594C536.227 26.1042 536.188 25.8854 536.109 25.7031C536.031 25.5208 535.909 25.3776 535.742 25.2734C535.576 25.1693 535.359 25.1172 535.094 25.1172C534.87 25.1172 534.674 25.1562 534.508 25.2344C534.346 25.3125 534.221 25.4245 534.133 25.5703C534.049 25.7161 534.008 25.8958 534.008 26.1094H531.57C531.57 25.7292 531.656 25.375 531.828 25.0469C532 24.7188 532.245 24.4297 532.562 24.1797C532.885 23.9297 533.271 23.737 533.719 23.6016C534.167 23.4609 534.669 23.3906 535.227 23.3906C535.888 23.3906 536.477 23.5026 536.992 23.7266C537.513 23.9453 537.924 24.276 538.227 24.7188C538.529 25.1562 538.68 25.7083 538.68 26.375V29.9141C538.68 30.4245 538.708 30.8255 538.766 31.1172C538.828 31.4036 538.917 31.6536 539.031 31.8672V32H536.57C536.456 31.7552 536.37 31.4531 536.312 31.0938C536.255 30.7292 536.227 30.3594 536.227 29.9844ZM536.531 26.8438L536.547 28.1875H535.336C535.065 28.1875 534.831 28.2214 534.633 28.2891C534.44 28.3568 534.284 28.4505 534.164 28.5703C534.044 28.6849 533.956 28.8203 533.898 28.9766C533.846 29.1276 533.82 29.2943 533.82 29.4766C533.82 29.6484 533.862 29.8047 533.945 29.9453C534.029 30.0807 534.143 30.1875 534.289 30.2656C534.435 30.3438 534.604 30.3828 534.797 30.3828C535.115 30.3828 535.385 30.3203 535.609 30.1953C535.839 30.0703 536.016 29.9193 536.141 29.7422C536.266 29.5599 536.328 29.3906 536.328 29.2344L536.914 30.25C536.82 30.4583 536.706 30.6745 536.57 30.8984C536.435 31.1172 536.263 31.3229 536.055 31.5156C535.846 31.7031 535.594 31.8568 535.297 31.9766C535.005 32.0964 534.654 32.1562 534.242 32.1562C533.711 32.1562 533.229 32.0495 532.797 31.8359C532.365 31.6172 532.018 31.3177 531.758 30.9375C531.503 30.5573 531.375 30.1198 531.375 29.625C531.375 29.1823 531.456 28.7891 531.617 28.4453C531.779 28.1016 532.021 27.8099 532.344 27.5703C532.672 27.3307 533.083 27.151 533.578 27.0312C534.073 26.9062 534.651 26.8438 535.312 26.8438H536.531ZM543.117 30.2734L544.883 23.5469H547.445L544.641 32H543.102L543.117 30.2734ZM541.977 23.5469L543.734 30.2812L543.75 32H542.211L539.406 23.5469H541.977ZM547.867 27.8594V27.6953C547.867 27.0755 547.956 26.5052 548.133 25.9844C548.31 25.4583 548.57 25.0026 548.914 24.6172C549.258 24.2318 549.68 23.9323 550.18 23.7188C550.68 23.5 551.253 23.3906 551.898 23.3906C552.555 23.3906 553.133 23.5 553.633 23.7188C554.138 23.9323 554.562 24.2318 554.906 24.6172C555.25 25.0026 555.51 25.4583 555.688 25.9844C555.865 26.5052 555.953 27.0755 555.953 27.6953V27.8594C555.953 28.474 555.865 29.0443 555.688 29.5703C555.51 30.0911 555.25 30.5469 554.906 30.9375C554.562 31.3229 554.141 31.6224 553.641 31.8359C553.141 32.0495 552.565 32.1562 551.914 32.1562C551.268 32.1562 550.693 32.0495 550.188 31.8359C549.682 31.6224 549.258 31.3229 548.914 30.9375C548.57 30.5469 548.31 30.0911 548.133 29.5703C547.956 29.0443 547.867 28.474 547.867 27.8594ZM550.312 27.6953V27.8594C550.312 28.1927 550.339 28.5052 550.391 28.7969C550.448 29.0885 550.539 29.3438 550.664 29.5625C550.789 29.7812 550.953 29.9531 551.156 30.0781C551.365 30.1979 551.617 30.2578 551.914 30.2578C552.211 30.2578 552.461 30.1979 552.664 30.0781C552.867 29.9531 553.031 29.7812 553.156 29.5625C553.281 29.3438 553.37 29.0885 553.422 28.7969C553.479 28.5052 553.508 28.1927 553.508 27.8594V27.6953C553.508 27.3672 553.479 27.0599 553.422 26.7734C553.37 26.4818 553.281 26.224 553.156 26C553.031 25.776 552.865 25.6016 552.656 25.4766C552.453 25.3516 552.201 25.2891 551.898 25.2891C551.607 25.2891 551.359 25.3516 551.156 25.4766C550.953 25.6016 550.789 25.776 550.664 26C550.539 26.224 550.448 26.4818 550.391 26.7734C550.339 27.0599 550.312 27.3672 550.312 27.6953ZM562.195 29.9609V23.5469H564.648V32H562.352L562.195 29.9609ZM562.453 28.2344L563.125 28.2188C563.125 28.7865 563.057 29.3099 562.922 29.7891C562.792 30.2682 562.594 30.6849 562.328 31.0391C562.068 31.3932 561.742 31.6693 561.352 31.8672C560.966 32.0599 560.516 32.1562 560 32.1562C559.583 32.1562 559.201 32.099 558.852 31.9844C558.508 31.8646 558.211 31.6797 557.961 31.4297C557.711 31.1745 557.518 30.849 557.383 30.4531C557.247 30.0521 557.18 29.5729 557.18 29.0156V23.5469H559.617V29.0312C559.617 29.25 559.643 29.4375 559.695 29.5938C559.753 29.7448 559.828 29.8698 559.922 29.9688C560.021 30.0677 560.141 30.1406 560.281 30.1875C560.427 30.2344 560.586 30.2578 560.758 30.2578C561.19 30.2578 561.529 30.1693 561.773 29.9922C562.023 29.8099 562.198 29.5677 562.297 29.2656C562.401 28.9583 562.453 28.6146 562.453 28.2344ZM568.68 25.5156V32H566.242V23.5469H568.531L568.68 25.5156ZM571.203 23.4844L571.164 25.7578C571.06 25.7422 570.924 25.7292 570.758 25.7188C570.591 25.7031 570.448 25.6953 570.328 25.6953C570.016 25.6953 569.745 25.7344 569.516 25.8125C569.292 25.8854 569.104 25.9948 568.953 26.1406C568.807 26.2865 568.698 26.4688 568.625 26.6875C568.552 26.901 568.516 27.1484 568.516 27.4297L568.055 27.2031C568.055 26.6458 568.109 26.1354 568.219 25.6719C568.328 25.2083 568.487 24.8073 568.695 24.4688C568.904 24.125 569.159 23.8594 569.461 23.6719C569.763 23.4844 570.107 23.3906 570.492 23.3906C570.617 23.3906 570.745 23.3984 570.875 23.4141C571.005 23.4297 571.115 23.4531 571.203 23.4844ZM574.891 31.0234L577.102 23.5469H579.727L576.328 33.2656C576.255 33.4792 576.156 33.7083 576.031 33.9531C575.911 34.1979 575.747 34.4323 575.539 34.6562C575.336 34.8802 575.076 35.0625 574.758 35.2031C574.44 35.3438 574.049 35.4141 573.586 35.4141C573.352 35.4141 573.169 35.401 573.039 35.375C572.914 35.3542 572.747 35.3177 572.539 35.2656L572.531 33.4922C572.599 33.4922 572.659 33.4922 572.711 33.4922C572.768 33.4974 572.826 33.5 572.883 33.5C573.174 33.5 573.409 33.4688 573.586 33.4062C573.768 33.3438 573.909 33.25 574.008 33.125C574.112 33.0052 574.195 32.8516 574.258 32.6641L574.891 31.0234ZM574.148 23.5469L575.898 29.5625L576.195 32.1484L574.547 32.2344L571.523 23.5469H574.148Z" fill="#2C4D38"/>
<path d="M197.539 102.203V104.172H191.648V102.203H197.539ZM192.453 97.625V109H189.906V97.625H192.453ZM199.297 97.625V109H196.758V97.625H199.297ZM205.047 109.156C204.375 109.156 203.773 109.049 203.242 108.836C202.711 108.622 202.26 108.328 201.891 107.953C201.526 107.573 201.247 107.135 201.055 106.641C200.862 106.146 200.766 105.617 200.766 105.055V104.758C200.766 104.128 200.854 103.547 201.031 103.016C201.208 102.484 201.466 102.023 201.805 101.633C202.148 101.237 202.57 100.932 203.07 100.719C203.57 100.5 204.141 100.391 204.781 100.391C205.38 100.391 205.914 100.49 206.383 100.688C206.852 100.88 207.247 101.159 207.57 101.523C207.893 101.883 208.138 102.318 208.305 102.828C208.477 103.333 208.562 103.901 208.562 104.531V105.531H201.75V103.961H206.172V103.773C206.172 103.477 206.117 103.216 206.008 102.992C205.904 102.768 205.747 102.596 205.539 102.477C205.336 102.352 205.078 102.289 204.766 102.289C204.469 102.289 204.221 102.352 204.023 102.477C203.826 102.602 203.667 102.779 203.547 103.008C203.432 103.232 203.349 103.495 203.297 103.797C203.245 104.094 203.219 104.414 203.219 104.758V105.055C203.219 105.383 203.263 105.682 203.352 105.953C203.44 106.224 203.57 106.456 203.742 106.648C203.914 106.841 204.122 106.992 204.367 107.102C204.612 107.211 204.891 107.266 205.203 107.266C205.589 107.266 205.956 107.193 206.305 107.047C206.654 106.896 206.956 106.661 207.211 106.344L208.352 107.648C208.18 107.898 207.938 108.141 207.625 108.375C207.318 108.604 206.948 108.792 206.516 108.938C206.083 109.083 205.594 109.156 205.047 109.156ZM212.195 102.516V109H209.758V100.547H212.047L212.195 102.516ZM214.719 100.484L214.68 102.758C214.576 102.742 214.44 102.729 214.273 102.719C214.107 102.703 213.964 102.695 213.844 102.695C213.531 102.695 213.26 102.734 213.031 102.812C212.807 102.885 212.62 102.995 212.469 103.141C212.323 103.286 212.214 103.469 212.141 103.688C212.068 103.901 212.031 104.148 212.031 104.43L211.57 104.203C211.57 103.646 211.625 103.135 211.734 102.672C211.844 102.208 212.003 101.807 212.211 101.469C212.419 101.125 212.674 100.859 212.977 100.672C213.279 100.484 213.622 100.391 214.008 100.391C214.133 100.391 214.26 100.398 214.391 100.414C214.521 100.43 214.63 100.453 214.719 100.484ZM215.727 97H218.164V106.992L217.914 109H215.727V97ZM223.438 104.68V104.844C223.438 105.484 223.37 106.068 223.234 106.594C223.104 107.12 222.904 107.576 222.633 107.961C222.362 108.341 222.021 108.635 221.609 108.844C221.198 109.052 220.714 109.156 220.156 109.156C219.641 109.156 219.198 109.049 218.828 108.836C218.458 108.617 218.148 108.315 217.898 107.93C217.648 107.544 217.445 107.094 217.289 106.578C217.138 106.062 217.021 105.508 216.938 104.914V104.633C217.021 104.039 217.138 103.484 217.289 102.969C217.445 102.453 217.648 102.003 217.898 101.617C218.148 101.232 218.456 100.932 218.82 100.719C219.19 100.5 219.63 100.391 220.141 100.391C220.703 100.391 221.19 100.497 221.602 100.711C222.018 100.924 222.362 101.224 222.633 101.609C222.904 101.99 223.104 102.443 223.234 102.969C223.37 103.49 223.438 104.06 223.438 104.68ZM221 104.844V104.68C221 104.357 220.977 104.052 220.93 103.766C220.888 103.479 220.812 103.227 220.703 103.008C220.599 102.784 220.451 102.609 220.258 102.484C220.07 102.354 219.828 102.289 219.531 102.289C219.24 102.289 218.992 102.339 218.789 102.438C218.586 102.536 218.422 102.677 218.297 102.859C218.172 103.036 218.081 103.253 218.023 103.508C217.966 103.763 217.935 104.047 217.93 104.359V105.188C217.935 105.604 217.99 105.969 218.094 106.281C218.198 106.594 218.367 106.836 218.602 107.008C218.836 107.174 219.151 107.258 219.547 107.258C219.849 107.258 220.094 107.201 220.281 107.086C220.474 106.966 220.62 106.799 220.719 106.586C220.823 106.372 220.896 106.117 220.938 105.82C220.979 105.523 221 105.198 221 104.844ZM227.188 108.023L229.398 100.547H232.023L228.625 110.266C228.552 110.479 228.453 110.708 228.328 110.953C228.208 111.198 228.044 111.432 227.836 111.656C227.633 111.88 227.372 112.062 227.055 112.203C226.737 112.344 226.346 112.414 225.883 112.414C225.648 112.414 225.466 112.401 225.336 112.375C225.211 112.354 225.044 112.318 224.836 112.266L224.828 110.492C224.896 110.492 224.956 110.492 225.008 110.492C225.065 110.497 225.122 110.5 225.18 110.5C225.471 110.5 225.706 110.469 225.883 110.406C226.065 110.344 226.206 110.25 226.305 110.125C226.409 110.005 226.492 109.852 226.555 109.664L227.188 108.023ZM226.445 100.547L228.195 106.562L228.492 109.148L226.844 109.234L223.82 100.547H226.445Z" fill="#2C4D38"/>
<path d="M526.422 105.047H523.562V103.07H526.422C526.844 103.07 527.182 103 527.438 102.859C527.698 102.719 527.888 102.526 528.008 102.281C528.133 102.031 528.195 101.75 528.195 101.438C528.195 101.115 528.133 100.815 528.008 100.539C527.888 100.258 527.698 100.031 527.438 99.8594C527.182 99.6875 526.844 99.6016 526.422 99.6016H524.484V109H521.938V97.625H526.422C527.328 97.625 528.104 97.7891 528.75 98.1172C529.401 98.4453 529.898 98.8958 530.242 99.4688C530.591 100.036 530.766 100.688 530.766 101.422C530.766 102.156 530.591 102.794 530.242 103.336C529.898 103.878 529.401 104.299 528.75 104.602C528.104 104.898 527.328 105.047 526.422 105.047ZM536.062 109.156C535.391 109.156 534.789 109.049 534.258 108.836C533.727 108.622 533.276 108.328 532.906 107.953C532.542 107.573 532.263 107.135 532.07 106.641C531.878 106.146 531.781 105.617 531.781 105.055V104.758C531.781 104.128 531.87 103.547 532.047 103.016C532.224 102.484 532.482 102.023 532.82 101.633C533.164 101.237 533.586 100.932 534.086 100.719C534.586 100.5 535.156 100.391 535.797 100.391C536.396 100.391 536.93 100.49 537.398 100.688C537.867 100.88 538.263 101.159 538.586 101.523C538.909 101.883 539.154 102.318 539.32 102.828C539.492 103.333 539.578 103.901 539.578 104.531V105.531H532.766V103.961H537.188V103.773C537.188 103.477 537.133 103.216 537.023 102.992C536.919 102.768 536.763 102.596 536.555 102.477C536.352 102.352 536.094 102.289 535.781 102.289C535.484 102.289 535.237 102.352 535.039 102.477C534.841 102.602 534.682 102.779 534.562 103.008C534.448 103.232 534.365 103.495 534.312 103.797C534.26 104.094 534.234 104.414 534.234 104.758V105.055C534.234 105.383 534.279 105.682 534.367 105.953C534.456 106.224 534.586 106.456 534.758 106.648C534.93 106.841 535.138 106.992 535.383 107.102C535.628 107.211 535.906 107.266 536.219 107.266C536.604 107.266 536.971 107.193 537.32 107.047C537.669 106.896 537.971 106.661 538.227 106.344L539.367 107.648C539.195 107.898 538.953 108.141 538.641 108.375C538.333 108.604 537.964 108.792 537.531 108.938C537.099 109.083 536.609 109.156 536.062 109.156ZM543.211 102.172V112.25H540.773V100.547H543.047L543.211 102.172ZM548.484 104.68V104.844C548.484 105.458 548.414 106.029 548.273 106.555C548.133 107.076 547.922 107.531 547.641 107.922C547.365 108.312 547.023 108.617 546.617 108.836C546.211 109.049 545.74 109.156 545.203 109.156C544.693 109.156 544.25 109.049 543.875 108.836C543.505 108.617 543.193 108.315 542.938 107.93C542.688 107.539 542.484 107.094 542.328 106.594C542.177 106.089 542.06 105.549 541.977 104.977V104.656C542.06 104.047 542.18 103.482 542.336 102.961C542.492 102.44 542.695 101.99 542.945 101.609C543.195 101.224 543.505 100.924 543.875 100.711C544.245 100.497 544.685 100.391 545.195 100.391C545.727 100.391 546.198 100.492 546.609 100.695C547.021 100.898 547.365 101.19 547.641 101.57C547.922 101.945 548.133 102.396 548.273 102.922C548.414 103.448 548.484 104.034 548.484 104.68ZM546.039 104.844V104.68C546.039 104.336 546.013 104.021 545.961 103.734C545.909 103.443 545.826 103.19 545.711 102.977C545.596 102.758 545.445 102.589 545.258 102.469C545.07 102.349 544.841 102.289 544.57 102.289C544.279 102.289 544.031 102.336 543.828 102.43C543.625 102.523 543.461 102.661 543.336 102.844C543.211 103.021 543.12 103.24 543.062 103.5C543.01 103.76 542.982 104.057 542.977 104.391V105.25C542.982 105.641 543.036 105.99 543.141 106.297C543.25 106.599 543.419 106.836 543.648 107.008C543.883 107.174 544.195 107.258 544.586 107.258C544.862 107.258 545.091 107.198 545.273 107.078C545.461 106.953 545.609 106.779 545.719 106.555C545.833 106.331 545.914 106.073 545.961 105.781C546.013 105.49 546.039 105.177 546.039 104.844ZM552.227 102.172V112.25H549.789V100.547H552.062L552.227 102.172ZM557.5 104.68V104.844C557.5 105.458 557.43 106.029 557.289 106.555C557.148 107.076 556.938 107.531 556.656 107.922C556.38 108.312 556.039 108.617 555.633 108.836C555.227 109.049 554.755 109.156 554.219 109.156C553.708 109.156 553.266 109.049 552.891 108.836C552.521 108.617 552.208 108.315 551.953 107.93C551.703 107.539 551.5 107.094 551.344 106.594C551.193 106.089 551.076 105.549 550.992 104.977V104.656C551.076 104.047 551.195 103.482 551.352 102.961C551.508 102.44 551.711 101.99 551.961 101.609C552.211 101.224 552.521 100.924 552.891 100.711C553.26 100.497 553.701 100.391 554.211 100.391C554.742 100.391 555.214 100.492 555.625 100.695C556.036 100.898 556.38 101.19 556.656 101.57C556.938 101.945 557.148 102.396 557.289 102.922C557.43 103.448 557.5 104.034 557.5 104.68ZM555.055 104.844V104.68C555.055 104.336 555.029 104.021 554.977 103.734C554.924 103.443 554.841 103.19 554.727 102.977C554.612 102.758 554.461 102.589 554.273 102.469C554.086 102.349 553.857 102.289 553.586 102.289C553.294 102.289 553.047 102.336 552.844 102.43C552.641 102.523 552.477 102.661 552.352 102.844C552.227 103.021 552.135 103.24 552.078 103.5C552.026 103.76 551.997 104.057 551.992 104.391V105.25C551.997 105.641 552.052 105.99 552.156 106.297C552.266 106.599 552.435 106.836 552.664 107.008C552.898 107.174 553.211 107.258 553.602 107.258C553.878 107.258 554.107 107.198 554.289 107.078C554.477 106.953 554.625 106.779 554.734 106.555C554.849 106.331 554.93 106.073 554.977 105.781C555.029 105.49 555.055 105.177 555.055 104.844ZM562.781 109.156C562.109 109.156 561.508 109.049 560.977 108.836C560.445 108.622 559.995 108.328 559.625 107.953C559.26 107.573 558.982 107.135 558.789 106.641C558.596 106.146 558.5 105.617 558.5 105.055V104.758C558.5 104.128 558.589 103.547 558.766 103.016C558.943 102.484 559.201 102.023 559.539 101.633C559.883 101.237 560.305 100.932 560.805 100.719C561.305 100.5 561.875 100.391 562.516 100.391C563.115 100.391 563.648 100.49 564.117 100.688C564.586 100.88 564.982 101.159 565.305 101.523C565.628 101.883 565.872 102.318 566.039 102.828C566.211 103.333 566.297 103.901 566.297 104.531V105.531H559.484V103.961H563.906V103.773C563.906 103.477 563.852 103.216 563.742 102.992C563.638 102.768 563.482 102.596 563.273 102.477C563.07 102.352 562.812 102.289 562.5 102.289C562.203 102.289 561.956 102.352 561.758 102.477C561.56 102.602 561.401 102.779 561.281 103.008C561.167 103.232 561.083 103.495 561.031 103.797C560.979 104.094 560.953 104.414 560.953 104.758V105.055C560.953 105.383 560.997 105.682 561.086 105.953C561.174 106.224 561.305 106.456 561.477 106.648C561.648 106.841 561.857 106.992 562.102 107.102C562.346 107.211 562.625 107.266 562.938 107.266C563.323 107.266 563.69 107.193 564.039 107.047C564.388 106.896 564.69 106.661 564.945 106.344L566.086 107.648C565.914 107.898 565.672 108.141 565.359 108.375C565.052 108.604 564.682 108.792 564.25 108.938C563.818 109.083 563.328 109.156 562.781 109.156ZM569.93 102.516V109H567.492V100.547H569.781L569.93 102.516ZM572.453 100.484L572.414 102.758C572.31 102.742 572.174 102.729 572.008 102.719C571.841 102.703 571.698 102.695 571.578 102.695C571.266 102.695 570.995 102.734 570.766 102.812C570.542 102.885 570.354 102.995 570.203 103.141C570.057 103.286 569.948 103.469 569.875 103.688C569.802 103.901 569.766 104.148 569.766 104.43L569.305 104.203C569.305 103.646 569.359 103.135 569.469 102.672C569.578 102.208 569.737 101.807 569.945 101.469C570.154 101.125 570.409 100.859 570.711 100.672C571.013 100.484 571.357 100.391 571.742 100.391C571.867 100.391 571.995 100.398 572.125 100.414C572.255 100.43 572.365 100.453 572.453 100.484ZM576.141 108.023L578.352 100.547H580.977L577.578 110.266C577.505 110.479 577.406 110.708 577.281 110.953C577.161 111.198 576.997 111.432 576.789 111.656C576.586 111.88 576.326 112.062 576.008 112.203C575.69 112.344 575.299 112.414 574.836 112.414C574.602 112.414 574.419 112.401 574.289 112.375C574.164 112.354 573.997 112.318 573.789 112.266L573.781 110.492C573.849 110.492 573.909 110.492 573.961 110.492C574.018 110.497 574.076 110.5 574.133 110.5C574.424 110.5 574.659 110.469 574.836 110.406C575.018 110.344 575.159 110.25 575.258 110.125C575.362 110.005 575.445 109.852 575.508 109.664L576.141 108.023ZM575.398 100.547L577.148 106.562L577.445 109.148L575.797 109.234L572.773 100.547H575.398Z" fill="#2C4D38"/>
<path d="M524.484 175.625V187H521.938V175.625H524.484ZM528.961 180.422V182.391H523.773V180.422H528.961ZM529.461 175.625V177.602H523.773V175.625H529.461ZM533.148 175V187H530.703V175H533.148ZM534.555 182.859V182.695C534.555 182.076 534.643 181.505 534.82 180.984C534.997 180.458 535.258 180.003 535.602 179.617C535.945 179.232 536.367 178.932 536.867 178.719C537.367 178.5 537.94 178.391 538.586 178.391C539.242 178.391 539.82 178.5 540.32 178.719C540.826 178.932 541.25 179.232 541.594 179.617C541.938 180.003 542.198 180.458 542.375 180.984C542.552 181.505 542.641 182.076 542.641 182.695V182.859C542.641 183.474 542.552 184.044 542.375 184.57C542.198 185.091 541.938 185.547 541.594 185.938C541.25 186.323 540.828 186.622 540.328 186.836C539.828 187.049 539.253 187.156 538.602 187.156C537.956 187.156 537.38 187.049 536.875 186.836C536.37 186.622 535.945 186.323 535.602 185.938C535.258 185.547 534.997 185.091 534.82 184.57C534.643 184.044 534.555 183.474 534.555 182.859ZM537 182.695V182.859C537 183.193 537.026 183.505 537.078 183.797C537.135 184.089 537.227 184.344 537.352 184.562C537.477 184.781 537.641 184.953 537.844 185.078C538.052 185.198 538.305 185.258 538.602 185.258C538.898 185.258 539.148 185.198 539.352 185.078C539.555 184.953 539.719 184.781 539.844 184.562C539.969 184.344 540.057 184.089 540.109 183.797C540.167 183.505 540.195 183.193 540.195 182.859V182.695C540.195 182.367 540.167 182.06 540.109 181.773C540.057 181.482 539.969 181.224 539.844 181C539.719 180.776 539.552 180.602 539.344 180.477C539.141 180.352 538.888 180.289 538.586 180.289C538.294 180.289 538.047 180.352 537.844 180.477C537.641 180.602 537.477 180.776 537.352 181C537.227 181.224 537.135 181.482 537.078 181.773C537.026 182.06 537 182.367 537 182.695ZM546.367 180.516V187H543.93V178.547H546.219L546.367 180.516ZM548.891 178.484L548.852 180.758C548.747 180.742 548.612 180.729 548.445 180.719C548.279 180.703 548.135 180.695 548.016 180.695C547.703 180.695 547.432 180.734 547.203 180.812C546.979 180.885 546.792 180.995 546.641 181.141C546.495 181.286 546.385 181.469 546.312 181.688C546.24 181.901 546.203 182.148 546.203 182.43L545.742 182.203C545.742 181.646 545.797 181.135 545.906 180.672C546.016 180.208 546.174 179.807 546.383 179.469C546.591 179.125 546.846 178.859 547.148 178.672C547.451 178.484 547.794 178.391 548.18 178.391C548.305 178.391 548.432 178.398 548.562 178.414C548.693 178.43 548.802 178.453 548.891 178.484ZM554.117 184.984V181.359C554.117 181.104 554.078 180.885 554 180.703C553.922 180.521 553.799 180.378 553.633 180.273C553.466 180.169 553.25 180.117 552.984 180.117C552.76 180.117 552.565 180.156 552.398 180.234C552.237 180.312 552.112 180.424 552.023 180.57C551.94 180.716 551.898 180.896 551.898 181.109H549.461C549.461 180.729 549.547 180.375 549.719 180.047C549.891 179.719 550.135 179.43 550.453 179.18C550.776 178.93 551.161 178.737 551.609 178.602C552.057 178.461 552.56 178.391 553.117 178.391C553.779 178.391 554.367 178.503 554.883 178.727C555.404 178.945 555.815 179.276 556.117 179.719C556.419 180.156 556.57 180.708 556.57 181.375V184.914C556.57 185.424 556.599 185.826 556.656 186.117C556.719 186.404 556.807 186.654 556.922 186.867V187H554.461C554.346 186.755 554.26 186.453 554.203 186.094C554.146 185.729 554.117 185.359 554.117 184.984ZM554.422 181.844L554.438 183.188H553.227C552.956 183.188 552.721 183.221 552.523 183.289C552.331 183.357 552.174 183.451 552.055 183.57C551.935 183.685 551.846 183.82 551.789 183.977C551.737 184.128 551.711 184.294 551.711 184.477C551.711 184.648 551.753 184.805 551.836 184.945C551.919 185.081 552.034 185.188 552.18 185.266C552.326 185.344 552.495 185.383 552.688 185.383C553.005 185.383 553.276 185.32 553.5 185.195C553.729 185.07 553.906 184.919 554.031 184.742C554.156 184.56 554.219 184.391 554.219 184.234L554.805 185.25C554.711 185.458 554.596 185.674 554.461 185.898C554.326 186.117 554.154 186.323 553.945 186.516C553.737 186.703 553.484 186.857 553.188 186.977C552.896 187.096 552.544 187.156 552.133 187.156C551.602 187.156 551.12 187.049 550.688 186.836C550.255 186.617 549.909 186.318 549.648 185.938C549.393 185.557 549.266 185.12 549.266 184.625C549.266 184.182 549.346 183.789 549.508 183.445C549.669 183.102 549.911 182.81 550.234 182.57C550.562 182.331 550.974 182.151 551.469 182.031C551.964 181.906 552.542 181.844 553.203 181.844H554.422ZM560.742 175V187H558.297V175H560.742Z" fill="#2C4D38"/>
<path d="M194.367 183C194.367 182.807 194.339 182.635 194.281 182.484C194.224 182.328 194.12 182.185 193.969 182.055C193.818 181.924 193.604 181.794 193.328 181.664C193.052 181.529 192.69 181.391 192.242 181.25C191.732 181.083 191.245 180.896 190.781 180.688C190.323 180.474 189.914 180.227 189.555 179.945C189.195 179.664 188.911 179.336 188.703 178.961C188.5 178.586 188.398 178.148 188.398 177.648C188.398 177.164 188.505 176.727 188.719 176.336C188.932 175.945 189.232 175.612 189.617 175.336C190.003 175.055 190.456 174.841 190.977 174.695C191.497 174.544 192.07 174.469 192.695 174.469C193.529 174.469 194.26 174.617 194.891 174.914C195.526 175.206 196.021 175.617 196.375 176.148C196.729 176.674 196.906 177.286 196.906 177.984H194.375C194.375 177.677 194.31 177.406 194.18 177.172C194.055 176.932 193.862 176.745 193.602 176.609C193.346 176.474 193.026 176.406 192.641 176.406C192.266 176.406 191.951 176.464 191.695 176.578C191.445 176.688 191.255 176.839 191.125 177.031C191 177.224 190.938 177.435 190.938 177.664C190.938 177.846 190.984 178.013 191.078 178.164C191.177 178.31 191.318 178.448 191.5 178.578C191.688 178.703 191.917 178.823 192.188 178.938C192.458 179.052 192.768 179.161 193.117 179.266C193.727 179.458 194.266 179.672 194.734 179.906C195.208 180.141 195.607 180.406 195.93 180.703C196.253 181 196.495 181.336 196.656 181.711C196.823 182.086 196.906 182.51 196.906 182.984C196.906 183.49 196.807 183.938 196.609 184.328C196.417 184.719 196.135 185.052 195.766 185.328C195.401 185.599 194.964 185.805 194.453 185.945C193.943 186.086 193.372 186.156 192.742 186.156C192.169 186.156 191.604 186.083 191.047 185.938C190.49 185.786 189.984 185.557 189.531 185.25C189.083 184.943 188.724 184.552 188.453 184.078C188.188 183.599 188.055 183.031 188.055 182.375H190.602C190.602 182.719 190.651 183.01 190.75 183.25C190.849 183.484 190.99 183.674 191.172 183.82C191.359 183.966 191.586 184.07 191.852 184.133C192.117 184.195 192.414 184.227 192.742 184.227C193.122 184.227 193.43 184.174 193.664 184.07C193.904 183.961 194.081 183.812 194.195 183.625C194.31 183.438 194.367 183.229 194.367 183ZM200.773 183.648L202.43 177.547H203.969L203.445 180.266L201.789 186H200.531L200.773 183.648ZM200.016 177.547L201.125 183.625L201.242 186H199.742L197.664 177.547H200.016ZM205.469 183.508L206.57 177.547H208.922L206.859 186H205.359L205.469 183.508ZM204.156 177.547L205.828 183.617L206.07 186H204.797L203.156 180.273L202.656 177.547H204.156ZM213.953 186.156C213.281 186.156 212.68 186.049 212.148 185.836C211.617 185.622 211.167 185.328 210.797 184.953C210.432 184.573 210.154 184.135 209.961 183.641C209.768 183.146 209.672 182.617 209.672 182.055V181.758C209.672 181.128 209.76 180.547 209.938 180.016C210.115 179.484 210.372 179.023 210.711 178.633C211.055 178.237 211.477 177.932 211.977 177.719C212.477 177.5 213.047 177.391 213.688 177.391C214.286 177.391 214.82 177.49 215.289 177.688C215.758 177.88 216.154 178.159 216.477 178.523C216.799 178.883 217.044 179.318 217.211 179.828C217.383 180.333 217.469 180.901 217.469 181.531V182.531H210.656V180.961H215.078V180.773C215.078 180.477 215.023 180.216 214.914 179.992C214.81 179.768 214.654 179.596 214.445 179.477C214.242 179.352 213.984 179.289 213.672 179.289C213.375 179.289 213.128 179.352 212.93 179.477C212.732 179.602 212.573 179.779 212.453 180.008C212.339 180.232 212.255 180.495 212.203 180.797C212.151 181.094 212.125 181.414 212.125 181.758V182.055C212.125 182.383 212.169 182.682 212.258 182.953C212.346 183.224 212.477 183.456 212.648 183.648C212.82 183.841 213.029 183.992 213.273 184.102C213.518 184.211 213.797 184.266 214.109 184.266C214.495 184.266 214.862 184.193 215.211 184.047C215.56 183.896 215.862 183.661 216.117 183.344L217.258 184.648C217.086 184.898 216.844 185.141 216.531 185.375C216.224 185.604 215.854 185.792 215.422 185.938C214.99 186.083 214.5 186.156 213.953 186.156ZM222.641 186.156C221.969 186.156 221.367 186.049 220.836 185.836C220.305 185.622 219.854 185.328 219.484 184.953C219.12 184.573 218.841 184.135 218.648 183.641C218.456 183.146 218.359 182.617 218.359 182.055V181.758C218.359 181.128 218.448 180.547 218.625 180.016C218.802 179.484 219.06 179.023 219.398 178.633C219.742 178.237 220.164 177.932 220.664 177.719C221.164 177.5 221.734 177.391 222.375 177.391C222.974 177.391 223.508 177.49 223.977 177.688C224.445 177.88 224.841 178.159 225.164 178.523C225.487 178.883 225.732 179.318 225.898 179.828C226.07 180.333 226.156 180.901 226.156 181.531V182.531H219.344V180.961H223.766V180.773C223.766 180.477 223.711 180.216 223.602 179.992C223.497 179.768 223.341 179.596 223.133 179.477C222.93 179.352 222.672 179.289 222.359 179.289C222.062 179.289 221.815 179.352 221.617 179.477C221.419 179.602 221.26 179.779 221.141 180.008C221.026 180.232 220.943 180.495 220.891 180.797C220.839 181.094 220.812 181.414 220.812 181.758V182.055C220.812 182.383 220.857 182.682 220.945 182.953C221.034 183.224 221.164 183.456 221.336 183.648C221.508 183.841 221.716 183.992 221.961 184.102C222.206 184.211 222.484 184.266 222.797 184.266C223.182 184.266 223.549 184.193 223.898 184.047C224.247 183.896 224.549 183.661 224.805 183.344L225.945 184.648C225.773 184.898 225.531 185.141 225.219 185.375C224.911 185.604 224.542 185.792 224.109 185.938C223.677 186.083 223.188 186.156 222.641 186.156ZM231.641 177.547V179.258H226.625V177.547H231.641ZM227.773 175.453H230.219V183.352C230.219 183.586 230.247 183.766 230.305 183.891C230.362 184.016 230.456 184.104 230.586 184.156C230.716 184.203 230.883 184.227 231.086 184.227C231.232 184.227 231.357 184.221 231.461 184.211C231.565 184.201 231.661 184.188 231.75 184.172V185.938C231.542 186.005 231.32 186.057 231.086 186.094C230.852 186.135 230.596 186.156 230.32 186.156C229.794 186.156 229.339 186.07 228.953 185.898C228.573 185.727 228.281 185.456 228.078 185.086C227.875 184.711 227.773 184.224 227.773 183.625V175.453Z" fill="#2C4D38"/>
<line x1="267" y1="22.7222" x2="267" y2="38.4215" stroke="#2C4D38" stroke-width="2" stroke-linecap="round"/>
<line x1="311.279" y1="22.7222" x2="311.279" y2="38.4215" stroke="#2C4D38" stroke-width="2" stroke-linecap="round"/>
<line x1="302.424" y1="22.7222" x2="302.424" y2="33.5944" stroke="#2C4D38" stroke-width="2" stroke-linecap="round"/>
<line x1="293.566" y1="22.7222" x2="293.566" y2="33.5944" stroke="#2C4D38" stroke-width="2" stroke-linecap="round"/>
<line x1="284.711" y1="22.7222" x2="284.711" y2="33.5944" stroke="#2C4D38" stroke-width="2" stroke-linecap="round"/>
<line x1="275.855" y1="22.7222" x2="275.855" y2="33.5944" stroke="#2C4D38" stroke-width="2" stroke-linecap="round"/>
<line x1="355.558" y1="22.7222" x2="355.558" y2="38.4215" stroke="#2C4D38" stroke-width="2" stroke-linecap="round"/>
<line x1="346.701" y1="22.7222" x2="346.701" y2="33.5944" stroke="#2C4D38" stroke-width="2" stroke-linecap="round"/>
<line x1="337.846" y1="22.7222" x2="337.846" y2="33.5944" stroke="#2C4D38" stroke-width="2" stroke-linecap="round"/>
<line x1="328.99" y1="22.7222" x2="328.99" y2="33.5944" stroke="#2C4D38" stroke-width="2" stroke-linecap="round"/>
<line x1="320.135" y1="22.7222" x2="320.135" y2="33.5944" stroke="#2C4D38" stroke-width="2" stroke-linecap="round"/>
<line x1="399.836" y1="22.7222" x2="399.836" y2="38.4215" stroke="#2C4D38" stroke-width="2" stroke-linecap="round"/>
<line x1="444.115" y1="22.7222" x2="444.115" y2="38.4215" stroke="#2C4D38" stroke-width="2" stroke-linecap="round"/>
<line x1="488.394" y1="22.7222" x2="488.394" y2="38.4215" stroke="#2C4D38" stroke-width="2" stroke-linecap="round"/>
<line x1="390.981" y1="22.7222" x2="390.981" y2="33.5944" stroke="#2C4D38" stroke-width="2" stroke-linecap="round"/>
<line x1="435.26" y1="22.7222" x2="435.26" y2="33.5944" stroke="#2C4D38" stroke-width="2" stroke-linecap="round"/>
<line x1="479.539" y1="22.7222" x2="479.539" y2="33.5944" stroke="#2C4D38" stroke-width="2" stroke-linecap="round"/>
<line x1="382.125" y1="22.7222" x2="382.125" y2="33.5944" stroke="#2C4D38" stroke-width="2" stroke-linecap="round"/>
<line x1="426.404" y1="22.7222" x2="426.404" y2="33.5944" stroke="#2C4D38" stroke-width="2" stroke-linecap="round"/>
<line x1="470.683" y1="22.7222" x2="470.683" y2="33.5944" stroke="#2C4D38" stroke-width="2" stroke-linecap="round"/>
<line x1="373.269" y1="22.7222" x2="373.269" y2="33.5944" stroke="#2C4D38" stroke-width="2" stroke-linecap="round"/>
<line x1="417.549" y1="22.7222" x2="417.549" y2="33.5944" stroke="#2C4D38" stroke-width="2" stroke-linecap="round"/>
<line x1="461.828" y1="22.7222" x2="461.828" y2="33.5944" stroke="#2C4D38" stroke-width="2" stroke-linecap="round"/>
<line x1="364.414" y1="22.7222" x2="364.414" y2="33.5944" stroke="#2C4D38" stroke-width="2" stroke-linecap="round"/>
<line x1="408.693" y1="22.7222" x2="408.693" y2="33.5944" stroke="#2C4D38" stroke-width="2" stroke-linecap="round"/>
<line x1="452.972" y1="22.7222" x2="452.972" y2="33.5944" stroke="#2C4D38" stroke-width="2" stroke-linecap="round"/>
<line x1="267" y1="101.722" x2="267" y2="117.422" stroke="#2C4D38" stroke-width="2" stroke-linecap="round"/>
<line x1="311.279" y1="101.722" x2="311.279" y2="117.422" stroke="#2C4D38" stroke-width="2" stroke-linecap="round"/>
<line x1="302.424" y1="101.722" x2="302.424" y2="112.594" stroke="#2C4D38" stroke-width="2" stroke-linecap="round"/>
<line x1="293.566" y1="101.722" x2="293.566" y2="112.594" stroke="#2C4D38" stroke-width="2" stroke-linecap="round"/>
<line x1="284.711" y1="101.722" x2="284.711" y2="112.594" stroke="#2C4D38" stroke-width="2" stroke-linecap="round"/>
<line x1="275.855" y1="101.722" x2="275.855" y2="112.594" stroke="#2C4D38" stroke-width="2" stroke-linecap="round"/>
<line x1="355.558" y1="101.722" x2="355.558" y2="117.422" stroke="#2C4D38" stroke-width="2" stroke-linecap="round"/>
<line x1="346.701" y1="101.722" x2="346.701" y2="112.594" stroke="#2C4D38" stroke-width="2" stroke-linecap="round"/>
<line x1="337.846" y1="101.722" x2="337.846" y2="112.594" stroke="#2C4D38" stroke-width="2" stroke-linecap="round"/>
<line x1="328.99" y1="101.722" x2="328.99" y2="112.594" stroke="#2C4D38" stroke-width="2" stroke-linecap="round"/>
<line x1="320.135" y1="101.722" x2="320.135" y2="112.594" stroke="#2C4D38" stroke-width="2" stroke-linecap="round"/>
<line x1="399.836" y1="101.722" x2="399.836" y2="117.422" stroke="#2C4D38" stroke-width="2" stroke-linecap="round"/>
<line x1="444.115" y1="101.722" x2="444.115" y2="117.422" stroke="#2C4D38" stroke-width="2" stroke-linecap="round"/>
<line x1="488.394" y1="101.722" x2="488.394" y2="117.422" stroke="#2C4D38" stroke-width="2" stroke-linecap="round"/>
<line x1="390.981" y1="101.722" x2="390.981" y2="112.594" stroke="#2C4D38" stroke-width="2" stroke-linecap="round"/>
<line x1="435.26" y1="101.722" x2="435.26" y2="112.594" stroke="#2C4D38" stroke-width="2" stroke-linecap="round"/>
<line x1="479.539" y1="101.722" x2="479.539" y2="112.594" stroke="#2C4D38" stroke-width="2" stroke-linecap="round"/>
<line x1="382.125" y1="101.722" x2="382.125" y2="112.594" stroke="#2C4D38" stroke-width="2" stroke-linecap="round"/>
<line x1="426.404" y1="101.722" x2="426.404" y2="112.594" stroke="#2C4D38" stroke-width="2" stroke-linecap="round"/>
<line x1="470.683" y1="101.722" x2="470.683" y2="112.594" stroke="#2C4D38" stroke-width="2" stroke-linecap="round"/>
<line x1="373.269" y1="101.722" x2="373.269" y2="112.594" stroke="#2C4D38" stroke-width="2" stroke-linecap="round"/>
<line x1="417.549" y1="101.722" x2="417.549" y2="112.594" stroke="#2C4D38" stroke-width="2" stroke-linecap="round"/>
<line x1="461.828" y1="101.722" x2="461.828" y2="112.594" stroke="#2C4D38" stroke-width="2" stroke-linecap="round"/>
<line x1="364.414" y1="101.722" x2="364.414" y2="112.594" stroke="#2C4D38" stroke-width="2" stroke-linecap="round"/>
<line x1="408.693" y1="101.722" x2="408.693" y2="112.594" stroke="#2C4D38" stroke-width="2" stroke-linecap="round"/>
<line x1="452.972" y1="101.722" x2="452.972" y2="112.594" stroke="#2C4D38" stroke-width="2" stroke-linecap="round"/>
<line x1="267" y1="178.722" x2="267" y2="194.422" stroke="#2C4D38" stroke-width="2" stroke-linecap="round"/>
<line x1="311.279" y1="178.722" x2="311.279" y2="194.422" stroke="#2C4D38" stroke-width="2" stroke-linecap="round"/>
<line x1="302.424" y1="178.722" x2="302.424" y2="189.594" stroke="#2C4D38" stroke-width="2" stroke-linecap="round"/>
<line x1="293.566" y1="178.722" x2="293.566" y2="189.594" stroke="#2C4D38" stroke-width="2" stroke-linecap="round"/>
<line x1="284.711" y1="178.722" x2="284.711" y2="189.594" stroke="#2C4D38" stroke-width="2" stroke-linecap="round"/>
<line x1="275.855" y1="178.722" x2="275.855" y2="189.594" stroke="#2C4D38" stroke-width="2" stroke-linecap="round"/>
<line x1="355.558" y1="178.722" x2="355.558" y2="194.422" stroke="#2C4D38" stroke-width="2" stroke-linecap="round"/>
<line x1="346.701" y1="178.722" x2="346.701" y2="189.594" stroke="#2C4D38" stroke-width="2" stroke-linecap="round"/>
<line x1="337.846" y1="178.722" x2="337.846" y2="189.594" stroke="#2C4D38" stroke-width="2" stroke-linecap="round"/>
<line x1="328.99" y1="178.722" x2="328.99" y2="189.594" stroke="#2C4D38" stroke-width="2" stroke-linecap="round"/>
<line x1="320.135" y1="178.722" x2="320.135" y2="189.594" stroke="#2C4D38" stroke-width="2" stroke-linecap="round"/>
<line x1="399.836" y1="178.722" x2="399.836" y2="194.422" stroke="#2C4D38" stroke-width="2" stroke-linecap="round"/>
<line x1="444.115" y1="178.722" x2="444.115" y2="194.422" stroke="#2C4D38" stroke-width="2" stroke-linecap="round"/>
<line x1="488.394" y1="178.722" x2="488.394" y2="194.422" stroke="#2C4D38" stroke-width="2" stroke-linecap="round"/>
<line x1="390.981" y1="178.722" x2="390.981" y2="189.594" stroke="#2C4D38" stroke-width="2" stroke-linecap="round"/>
<line x1="435.26" y1="178.722" x2="435.26" y2="189.594" stroke="#2C4D38" stroke-width="2" stroke-linecap="round"/>
<line x1="479.539" y1="178.722" x2="479.539" y2="189.594" stroke="#2C4D38" stroke-width="2" stroke-linecap="round"/>
<line x1="382.125" y1="178.722" x2="382.125" y2="189.594" stroke="#2C4D38" stroke-width="2" stroke-linecap="round"/>
<line x1="426.404" y1="178.722" x2="426.404" y2="189.594" stroke="#2C4D38" stroke-width="2" stroke-linecap="round"/>
<line x1="470.683" y1="178.722" x2="470.683" y2="189.594" stroke="#2C4D38" stroke-width="2" stroke-linecap="round"/>
<line x1="373.269" y1="178.722" x2="373.269" y2="189.594" stroke="#2C4D38" stroke-width="2" stroke-linecap="round"/>
<line x1="417.549" y1="178.722" x2="417.549" y2="189.594" stroke="#2C4D38" stroke-width="2" stroke-linecap="round"/>
<line x1="461.828" y1="178.722" x2="461.828" y2="189.594" stroke="#2C4D38" stroke-width="2" stroke-linecap="round"/>
<line x1="364.414" y1="178.722" x2="364.414" y2="189.594" stroke="#2C4D38" stroke-width="2" stroke-linecap="round"/>
<line x1="408.693" y1="178.722" x2="408.693" y2="189.594" stroke="#2C4D38" stroke-width="2" stroke-linecap="round"/>
<line x1="452.972" y1="178.722" x2="452.972" y2="189.594" stroke="#2C4D38" stroke-width="2" stroke-linecap="round"/>
<path d="M283.246 0H268.836C268.202 0 267.728 0.581635 267.856 1.2021L274.507 33.4303C274.723 34.4765 276.209 34.5008 276.459 33.4622L284.218 1.23407C284.369 0.605064 283.893 0 283.246 0Z" fill="#2C4D38"/>
<path d="M415.637 79H401.227C400.594 79 400.12 79.5816 400.248 80.2021L406.899 112.43C407.115 113.476 408.6 113.501 408.85 112.462L416.609 80.2341C416.761 79.6051 416.284 79 415.637 79Z" fill="#2C4D38"/>
<path d="M325.637 156H311.227C310.594 156 310.12 156.582 310.248 157.202L316.899 189.43C317.115 190.476 318.6 190.501 318.85 189.462L326.609 157.234C326.761 156.605 326.284 156 325.637 156Z" fill="#2C4D38"/>
<path d="M5.22656 18.9375V36H1.40625V18.9375H5.22656ZM11.9414 26.1328V29.0859H4.16016V26.1328H11.9414ZM12.6914 18.9375V21.9023H4.16016V18.9375H12.6914ZM18.2227 18V36H14.5547V18H18.2227ZM27.5742 32.9766V27.5391C27.5742 27.1562 27.5156 26.8281 27.3984 26.5547C27.2812 26.2812 27.0977 26.0664 26.8477 25.9102C26.5977 25.7539 26.2734 25.6758 25.875 25.6758C25.5391 25.6758 25.2461 25.7344 24.9961 25.8516C24.7539 25.9688 24.5664 26.1367 24.4336 26.3555C24.3086 26.5742 24.2461 26.8438 24.2461 27.1641H20.5898C20.5898 26.5938 20.7188 26.0625 20.9766 25.5703C21.2344 25.0781 21.6016 24.6445 22.0781 24.2695C22.5625 23.8945 23.1406 23.6055 23.8125 23.4023C24.4844 23.1914 25.2383 23.0859 26.0742 23.0859C27.0664 23.0859 27.9492 23.2539 28.7227 23.5898C29.5039 23.918 30.1211 24.4141 30.5742 25.0781C31.0273 25.7344 31.2539 26.5625 31.2539 27.5625V32.8711C31.2539 33.6367 31.2969 34.2383 31.3828 34.6758C31.4766 35.1055 31.6094 35.4805 31.7812 35.8008V36H28.0898C27.918 35.6328 27.7891 35.1797 27.7031 34.6406C27.6172 34.0938 27.5742 33.5391 27.5742 32.9766ZM28.0312 28.2656L28.0547 30.2812H26.2383C25.832 30.2812 25.4805 30.332 25.1836 30.4336C24.8945 30.5352 24.6602 30.6758 24.4805 30.8555C24.3008 31.0273 24.168 31.2305 24.082 31.4648C24.0039 31.6914 23.9648 31.9414 23.9648 32.2148C23.9648 32.4727 24.0273 32.707 24.1523 32.918C24.2773 33.1211 24.4492 33.2812 24.668 33.3984C24.8867 33.5156 25.1406 33.5742 25.4297 33.5742C25.9062 33.5742 26.3125 33.4805 26.6484 33.293C26.9922 33.1055 27.2578 32.8789 27.4453 32.6133C27.6328 32.3398 27.7266 32.0859 27.7266 31.8516L28.6055 33.375C28.4648 33.6875 28.293 34.0117 28.0898 34.3477C27.8867 34.6758 27.6289 34.9844 27.3164 35.2734C27.0039 35.5547 26.625 35.7852 26.1797 35.9648C25.7422 36.1445 25.2148 36.2344 24.5977 36.2344C23.8008 36.2344 23.0781 36.0742 22.4297 35.7539C21.7812 35.4258 21.2617 34.9766 20.8711 34.4062C20.4883 33.8359 20.2969 33.1797 20.2969 32.4375C20.2969 31.7734 20.418 31.1836 20.6602 30.668C20.9023 30.1523 21.2656 29.7148 21.75 29.3555C22.2422 28.9961 22.8594 28.7266 23.6016 28.5469C24.3438 28.3594 25.2109 28.2656 26.2031 28.2656H28.0312ZM37.9102 33.4102L40.5586 23.3203H44.4023L40.1953 36H37.8867L37.9102 33.4102ZM36.1992 23.3203L38.8359 33.4219L38.8594 36H36.5508L32.3438 23.3203H36.1992ZM45.0352 29.7891V29.543C45.0352 28.6133 45.168 27.7578 45.4336 26.9766C45.6992 26.1875 46.0898 25.5039 46.6055 24.9258C47.1211 24.3477 47.7539 23.8984 48.5039 23.5781C49.2539 23.25 50.1133 23.0859 51.082 23.0859C52.0664 23.0859 52.9336 23.25 53.6836 23.5781C54.4414 23.8984 55.0781 24.3477 55.5938 24.9258C56.1094 25.5039 56.5 26.1875 56.7656 26.9766C57.0312 27.7578 57.1641 28.6133 57.1641 29.543V29.7891C57.1641 30.7109 57.0312 31.5664 56.7656 32.3555C56.5 33.1367 56.1094 33.8203 55.5938 34.4062C55.0781 34.9844 54.4453 35.4336 53.6953 35.7539C52.9453 36.0742 52.082 36.2344 51.1055 36.2344C50.1367 36.2344 49.2734 36.0742 48.5156 35.7539C47.7578 35.4336 47.1211 34.9844 46.6055 34.4062C46.0898 33.8203 45.6992 33.1367 45.4336 32.3555C45.168 31.5664 45.0352 30.7109 45.0352 29.7891ZM48.7031 29.543V29.7891C48.7031 30.2891 48.7422 30.7578 48.8203 31.1953C48.9062 31.6328 49.043 32.0156 49.2305 32.3438C49.418 32.6719 49.6641 32.9297 49.9688 33.1172C50.2812 33.2969 50.6602 33.3867 51.1055 33.3867C51.5508 33.3867 51.9258 33.2969 52.2305 33.1172C52.5352 32.9297 52.7812 32.6719 52.9688 32.3438C53.1562 32.0156 53.2891 31.6328 53.3672 31.1953C53.4531 30.7578 53.4961 30.2891 53.4961 29.7891V29.543C53.4961 29.0508 53.4531 28.5898 53.3672 28.1602C53.2891 27.7227 53.1562 27.3359 52.9688 27C52.7812 26.6641 52.5312 26.4023 52.2188 26.2148C51.9141 26.0273 51.5352 25.9336 51.082 25.9336C50.6445 25.9336 50.2734 26.0273 49.9688 26.2148C49.6641 26.4023 49.418 26.6641 49.2305 27C49.043 27.3359 48.9062 27.7227 48.8203 28.1602C48.7422 28.5898 48.7031 29.0508 48.7031 29.543ZM66.5273 32.9414V23.3203H70.207V36H66.7617L66.5273 32.9414ZM66.9141 30.3516L67.9219 30.3281C67.9219 31.1797 67.8203 31.9648 67.6172 32.6836C67.4219 33.4023 67.125 34.0273 66.7266 34.5586C66.3359 35.0898 65.8477 35.5039 65.2617 35.8008C64.6836 36.0898 64.0078 36.2344 63.2344 36.2344C62.6094 36.2344 62.0352 36.1484 61.5117 35.9766C60.9961 35.7969 60.5508 35.5195 60.1758 35.1445C59.8008 34.7617 59.5117 34.2734 59.3086 33.6797C59.1055 33.0781 59.0039 32.3594 59.0039 31.5234V23.3203H62.6602V31.5469C62.6602 31.875 62.6992 32.1562 62.7773 32.3906C62.8633 32.6172 62.9766 32.8047 63.1172 32.9531C63.2656 33.1016 63.4453 33.2109 63.6562 33.2812C63.875 33.3516 64.1133 33.3867 64.3711 33.3867C65.0195 33.3867 65.5273 33.2539 65.8945 32.9883C66.2695 32.7148 66.5312 32.3516 66.6797 31.8984C66.8359 31.4375 66.9141 30.9219 66.9141 30.3516ZM76.2539 26.2734V36H72.5977V23.3203H76.0312L76.2539 26.2734ZM80.0391 23.2266L79.9805 26.6367C79.8242 26.6133 79.6211 26.5938 79.3711 26.5781C79.1211 26.5547 78.9062 26.543 78.7266 26.543C78.2578 26.543 77.8516 26.6016 77.5078 26.7188C77.1719 26.8281 76.8906 26.9922 76.6641 27.2109C76.4453 27.4297 76.2812 27.7031 76.1719 28.0312C76.0625 28.3516 76.0078 28.7227 76.0078 29.1445L75.3164 28.8047C75.3164 27.9688 75.3984 27.2031 75.5625 26.5078C75.7266 25.8125 75.9648 25.2109 76.2773 24.7031C76.5898 24.1875 76.9727 23.7891 77.4258 23.5078C77.8789 23.2266 78.3945 23.0859 78.9727 23.0859C79.1602 23.0859 79.3516 23.0977 79.5469 23.1211C79.7422 23.1445 79.9062 23.1797 80.0391 23.2266ZM101.777 18.9375V36H97.9688L91.5234 24.9727V36H87.7031V18.9375H91.5234L97.9805 29.9648V18.9375H101.777ZM103.887 29.7891V29.543C103.887 28.6133 104.02 27.7578 104.285 26.9766C104.551 26.1875 104.941 25.5039 105.457 24.9258C105.973 24.3477 106.605 23.8984 107.355 23.5781C108.105 23.25 108.965 23.0859 109.934 23.0859C110.918 23.0859 111.785 23.25 112.535 23.5781C113.293 23.8984 113.93 24.3477 114.445 24.9258C114.961 25.5039 115.352 26.1875 115.617 26.9766C115.883 27.7578 116.016 28.6133 116.016 29.543V29.7891C116.016 30.7109 115.883 31.5664 115.617 32.3555C115.352 33.1367 114.961 33.8203 114.445 34.4062C113.93 34.9844 113.297 35.4336 112.547 35.7539C111.797 36.0742 110.934 36.2344 109.957 36.2344C108.988 36.2344 108.125 36.0742 107.367 35.7539C106.609 35.4336 105.973 34.9844 105.457 34.4062C104.941 33.8203 104.551 33.1367 104.285 32.3555C104.02 31.5664 103.887 30.7109 103.887 29.7891ZM107.555 29.543V29.7891C107.555 30.2891 107.594 30.7578 107.672 31.1953C107.758 31.6328 107.895 32.0156 108.082 32.3438C108.27 32.6719 108.516 32.9297 108.82 33.1172C109.133 33.2969 109.512 33.3867 109.957 33.3867C110.402 33.3867 110.777 33.2969 111.082 33.1172C111.387 32.9297 111.633 32.6719 111.82 32.3438C112.008 32.0156 112.141 31.6328 112.219 31.1953C112.305 30.7578 112.348 30.2891 112.348 29.7891V29.543C112.348 29.0508 112.305 28.5898 112.219 28.1602C112.141 27.7227 112.008 27.3359 111.82 27C111.633 26.6641 111.383 26.4023 111.07 26.2148C110.766 26.0273 110.387 25.9336 109.934 25.9336C109.496 25.9336 109.125 26.0273 108.82 26.2148C108.516 26.4023 108.27 26.6641 108.082 27C107.895 27.3359 107.758 27.7227 107.672 28.1602C107.594 28.5898 107.555 29.0508 107.555 29.543ZM124.383 23.3203V25.8867H116.859V23.3203H124.383ZM118.582 20.1797H122.25V32.0273C122.25 32.3789 122.293 32.6484 122.379 32.8359C122.465 33.0234 122.605 33.1562 122.801 33.2344C122.996 33.3047 123.246 33.3398 123.551 33.3398C123.77 33.3398 123.957 33.332 124.113 33.3164C124.27 33.3008 124.414 33.2812 124.547 33.2578V35.9062C124.234 36.0078 123.902 36.0859 123.551 36.1406C123.199 36.2031 122.816 36.2344 122.402 36.2344C121.613 36.2344 120.93 36.1055 120.352 35.8477C119.781 35.5898 119.344 35.1836 119.039 34.6289C118.734 34.0664 118.582 33.3359 118.582 32.4375V20.1797ZM132.117 36.2344C131.109 36.2344 130.207 36.0742 129.41 35.7539C128.613 35.4336 127.938 34.9922 127.383 34.4297C126.836 33.8594 126.418 33.2031 126.129 32.4609C125.84 31.7188 125.695 30.9258 125.695 30.082V29.6367C125.695 28.6914 125.828 27.8203 126.094 27.0234C126.359 26.2266 126.746 25.5352 127.254 24.9492C127.77 24.3555 128.402 23.8984 129.152 23.5781C129.902 23.25 130.758 23.0859 131.719 23.0859C132.617 23.0859 133.418 23.2344 134.121 23.5312C134.824 23.8203 135.418 24.2383 135.902 24.7852C136.387 25.3242 136.754 25.9766 137.004 26.7422C137.262 27.5 137.391 28.3516 137.391 29.2969V30.7969H127.172V28.4414H133.805V28.1602C133.805 27.7148 133.723 27.3242 133.559 26.9883C133.402 26.6523 133.168 26.3945 132.855 26.2148C132.551 26.0273 132.164 25.9336 131.695 25.9336C131.25 25.9336 130.879 26.0273 130.582 26.2148C130.285 26.4023 130.047 26.668 129.867 27.0117C129.695 27.3477 129.57 27.7422 129.492 28.1953C129.414 28.6406 129.375 29.1211 129.375 29.6367V30.082C129.375 30.5742 129.441 31.0234 129.574 31.4297C129.707 31.8359 129.902 32.1836 130.16 32.4727C130.418 32.7617 130.73 32.9883 131.098 33.1523C131.465 33.3164 131.883 33.3984 132.352 33.3984C132.93 33.3984 133.48 33.2891 134.004 33.0703C134.527 32.8438 134.98 32.4922 135.363 32.0156L137.074 33.9727C136.816 34.3477 136.453 34.7109 135.984 35.0625C135.523 35.4062 134.969 35.6875 134.32 35.9062C133.672 36.125 132.938 36.2344 132.117 36.2344ZM145.922 32.4727C145.922 32.2383 145.848 32.0312 145.699 31.8516C145.559 31.6719 145.301 31.5078 144.926 31.3594C144.559 31.2109 144.039 31.0625 143.367 30.9141C142.734 30.7812 142.145 30.6094 141.598 30.3984C141.051 30.1797 140.574 29.918 140.168 29.6133C139.762 29.3008 139.445 28.9336 139.219 28.5117C138.992 28.082 138.879 27.5938 138.879 27.0469C138.879 26.5156 138.992 26.0117 139.219 25.5352C139.453 25.0586 139.789 24.6367 140.227 24.2695C140.672 23.9023 141.211 23.6133 141.844 23.4023C142.484 23.1914 143.211 23.0859 144.023 23.0859C145.141 23.0859 146.105 23.2617 146.918 23.6133C147.73 23.957 148.355 24.4414 148.793 25.0664C149.23 25.6836 149.449 26.3906 149.449 27.1875H145.793C145.793 26.8594 145.73 26.5742 145.605 26.332C145.48 26.0898 145.289 25.9023 145.031 25.7695C144.773 25.6289 144.434 25.5586 144.012 25.5586C143.684 25.5586 143.395 25.6172 143.145 25.7344C142.902 25.8438 142.711 25.9961 142.57 26.1914C142.438 26.3867 142.371 26.6133 142.371 26.8711C142.371 27.0508 142.41 27.2148 142.488 27.3633C142.574 27.5039 142.703 27.6367 142.875 27.7617C143.055 27.8789 143.285 27.9844 143.566 28.0781C143.855 28.1719 144.207 28.2617 144.621 28.3477C145.504 28.5117 146.309 28.7422 147.035 29.0391C147.77 29.3359 148.355 29.7461 148.793 30.2695C149.238 30.793 149.461 31.4844 149.461 32.3438C149.461 32.9062 149.332 33.4219 149.074 33.8906C148.824 34.3594 148.461 34.7695 147.984 35.1211C147.508 35.4727 146.938 35.7461 146.273 35.9414C145.609 36.1367 144.859 36.2344 144.023 36.2344C142.828 36.2344 141.816 36.0195 140.988 35.5898C140.16 35.1602 139.535 34.6211 139.113 33.9727C138.699 33.3164 138.492 32.6445 138.492 31.957H141.926C141.941 32.3789 142.047 32.7227 142.242 32.9883C142.445 33.2539 142.707 33.4492 143.027 33.5742C143.348 33.6914 143.707 33.75 144.105 33.75C144.504 33.75 144.836 33.6953 145.102 33.5859C145.367 33.4766 145.57 33.3281 145.711 33.1406C145.852 32.9453 145.922 32.7227 145.922 32.4727Z" fill="#2C4D38"/>
</svg>
