<svg width="103" height="176" viewBox="0 0 103 176" fill="none" xmlns="http://www.w3.org/2000/svg">
<g clip-path="url(#clip0_183_4341)">
<path d="M23.5785 0C14.512 11.9521 6.61884 24.7508 0.00843207 38.2184C6.95167e-05 38.229 -0.00611124 38.2411 -0.00978364 38.2541C-0.013456 38.2671 -0.0145476 38.2807 -0.0129707 38.2941C-0.00978613 38.3212 0.00403728 38.3459 0.0254299 38.3628C0.0468226 38.3797 0.0740479 38.3874 0.101117 38.3842C0.128186 38.381 0.152867 38.3672 0.169756 38.3458C4.26759 34.7993 9.45954 32.7693 14.8756 32.5961C15.6531 32.6211 16.4303 32.5382 17.185 32.3498C18.2171 31.9137 19.148 31.2689 19.919 30.4558C24.0624 26.8123 27.9936 24.6466 32.8248 26.5151C37.3503 21.776 45.8409 19.8566 52.3193 19.5169C57.2133 15.306 63.1697 12.5209 69.5383 11.4655C69.6509 11.4655 69.7589 11.4208 69.8385 11.3411C69.9181 11.2615 69.9629 11.1535 69.9629 11.0409C69.9629 10.9282 69.9181 10.8202 69.8385 10.7406C69.7589 10.661 69.6509 10.6162 69.5383 10.6162C54.4023 6.38106 39.0824 2.84232 23.5785 0Z" fill="#FAF1E1"/>
<path d="M23.171 0.586434C20.6918 11.1517 18.4672 21.7679 15.7248 32.2737C15.7216 32.423 15.7689 32.5689 15.859 32.6878C15.949 32.8068 16.0767 32.8919 16.2211 32.9292C16.3656 32.9666 16.5184 32.954 16.6549 32.8936C16.7913 32.8332 16.9034 32.7285 16.9729 32.5965C19.7069 22.0991 21.9314 11.4744 24.4107 0.909165C24.5975 0.0598667 23.3324 -0.262866 23.1456 0.560953L23.171 0.586434Z" fill="#113266"/>
<path d="M23.4689 1.32491C32.9445 7.6267 42.3691 14.0049 51.989 20.0774C52.7022 20.536 53.3645 19.398 52.6512 18.9478C43.0313 12.8669 33.6067 6.48864 24.1312 0.195343C23.4265 -0.271771 22.7642 0.866289 23.4689 1.32491Z" fill="#113266"/>
<path d="M23.1719 0.934509C27.5983 13.5494 32.0418 26.1756 36.5022 38.8132C40.8239 51.128 45.1796 63.4428 48.958 75.9275C51.0976 83.0107 53.0505 90.1617 54.6976 97.3723C54.8844 98.2216 56.1496 97.8479 55.9628 97.0241C50.1212 71.4602 40.6796 46.8221 32.0361 22.116C29.5172 14.9423 26.9983 7.76569 24.4794 0.586297C24.1993 -0.20355 22.9257 0.136169 23.2143 0.934509H23.1719Z" fill="#113266"/>
<path d="M22.916 65.3105C24.1217 68.2321 27.1613 71.3066 29.7085 73.1241C31.9416 74.6953 34.735 75.3238 36.9086 76.9714C42.8521 81.4727 41.7058 91.1377 46.5879 96.777C49.04 99.4005 52.3565 101.05 55.9276 101.423C57.9387 101.733 59.9796 101.802 62.0069 101.627C67.3476 100.871 71.5589 99.0786 73.9533 94.2376C75.5259 90.7882 76.7931 87.2074 77.7401 83.5365C78.309 81.5576 78.8354 79.3579 80.4996 78.1434C81.5257 77.5381 82.624 77.0644 83.7685 76.7336C88.3534 74.8821 92.5053 70.1006 94.1101 65.3105C71.4061 65.5653 45.5521 65.319 22.916 65.3105Z" fill="#7A7A7A"/>
<path d="M63.0942 167.635C63.1876 167.796 63.0942 167.703 63.0942 167.397C63.0942 167.091 63.0433 166.667 63.0263 166.301C62.9669 165.036 62.9414 163.753 62.9075 162.488C62.8141 158.352 62.7631 154.216 62.7122 150.071C62.5933 139.563 62.5197 129.051 62.4914 118.537C62.4914 114.239 62.4914 109.939 62.4914 105.636C62.4871 105.468 62.4186 105.309 62.3001 105.19C62.1816 105.072 62.0221 105.003 61.8546 104.999L57.5329 105.058C57.3661 105.063 57.2076 105.132 57.0905 105.25C56.9733 105.369 56.9067 105.529 56.9046 105.695C56.3866 113.169 56.3866 120.694 56.3102 128.185C56.2083 137.255 56.1744 146.317 56.1404 155.362C56.1404 158.488 56.1404 161.613 56.081 164.705C56.081 165.554 56.081 166.403 56.081 167.202C56.081 167.312 55.9876 167.686 56.081 167.779C56.081 167.728 56.2593 167.609 56.2168 167.473C56.1744 167.337 56.3866 167.473 56.2168 167.473C56.1574 167.473 56.03 167.575 55.9791 167.609C53.0413 169.197 49.8573 170.403 46.8007 171.771C45.4252 172.391 44.0158 172.994 42.6827 173.707C41.995 174.072 40.9846 175.083 42.3601 175.406C43.6166 175.587 44.8865 175.658 46.1554 175.618C47.5903 175.686 49.0253 175.737 50.4687 175.78C53.5423 175.873 56.6159 175.907 59.681 175.915C65.1914 175.915 70.7188 175.847 76.2123 175.414C77.1547 175.338 78.1057 175.253 79.0481 175.134C79.617 175.058 79.9821 174.285 79.3708 173.945C76.4089 172.501 73.3506 171.264 70.2179 170.242C68.6216 169.656 67.0254 169.079 65.4292 168.467C64.6124 168.242 63.834 167.895 63.1197 167.439C62.6188 166.802 61.7272 167.703 62.2282 168.34C62.7291 168.977 63.7905 169.189 64.4273 169.427C65.9981 170.055 67.5943 170.624 69.182 171.21C72.4528 172.262 75.6448 173.545 78.734 175.049L79.0481 173.86C74.2543 174.376 69.4355 174.626 64.6141 174.607C58.6112 174.692 52.5998 174.607 46.6054 174.37L44.7714 174.285C44.1116 174.182 43.4435 174.142 42.7761 174.166C42.3516 174.225 42.2327 173.852 42.6318 174.582L42.878 175.032L42.8101 175.126C42.8695 175.126 42.7252 175.126 42.8526 175.126C43.0405 175.047 43.2174 174.944 43.379 174.82C44.712 174.123 46.096 173.529 47.463 172.909C50.4941 171.55 53.6866 170.361 56.5989 168.764C56.8306 168.681 57.0316 168.529 57.1756 168.329C57.3195 168.129 57.3997 167.89 57.4055 167.643C57.4565 167.006 57.448 166.361 57.4564 165.732C57.4989 162.981 57.4989 160.229 57.5159 157.477C57.5583 148.721 57.5838 139.956 57.6602 131.2C57.7367 123.293 57.7706 115.377 58.1782 107.479C58.1782 106.876 58.2461 106.264 58.2885 105.661L57.6517 106.29L61.9735 106.239L61.3367 105.602C61.3367 114.571 61.3735 123.539 61.4471 132.508C61.5065 142.215 61.5659 151.931 61.7782 161.639C61.7782 163.15 61.8376 164.671 61.9056 166.182C61.8512 166.876 61.932 167.574 62.1433 168.238C62.3895 169.028 63.4848 168.382 63.0942 167.635Z" fill="#FAF1E1"/>
<path d="M101.76 44.69C100.617 50.5611 99.1231 56.3581 97.285 62.0497C95.901 66.5934 94.0415 71.4599 90.2802 74.5853C89.2932 75.4059 88.1771 76.0574 86.9773 76.5132C85.7178 76.877 84.5106 77.4023 83.3858 78.0759C81.4329 79.4688 80.7197 81.8553 80.0914 84.021C79.2423 86.9596 78.3933 89.9067 77.3405 92.7773C76.415 95.2402 75.3876 97.8136 73.6215 99.818C70.5564 103.3 65.4875 104.914 60.945 105.05C55.5704 105.211 49.5591 104.081 45.6619 100.047C39.4722 93.5841 41.459 82.4583 34.0891 76.7935C31.6353 74.9081 28.5447 74.1777 25.9805 72.4706C23.4164 70.7635 21.7352 68.0967 20.4701 65.3619C17.5298 58.8423 15.7237 51.8685 15.1295 44.741L14.4927 45.3695H23.2041H44.2269H69.563H91.5538H98.7708C99.9001 45.3695 101.072 45.4629 102.167 45.3695H102.311C102.467 45.3515 102.61 45.2771 102.714 45.1604C102.817 45.0437 102.875 44.893 102.875 44.7367C102.875 44.5805 102.817 44.4298 102.714 44.3131C102.61 44.1964 102.467 44.122 102.311 44.104H93.6679H72.6451H47.309H25.3183H18.1012C16.972 44.104 15.8002 44.0106 14.705 44.104H14.5521C14.3847 44.1063 14.2249 44.1743 14.1073 44.2936C13.9897 44.4128 13.9238 44.5735 13.9238 44.741C14.5022 51.2364 16.0209 57.6133 18.4324 63.6718C19.3648 66.2152 20.6758 68.6032 22.3211 70.755C24.155 73.0056 26.5069 74.3051 29.1136 75.4771C31.7202 76.6491 33.9278 77.8127 35.5835 80.0463C36.838 81.8638 37.7926 83.8711 38.4108 85.9914C39.8373 90.3653 40.6354 95.1298 43.2675 99.0026C46.3496 103.538 51.5289 105.568 56.8101 106.12C61.6328 106.621 66.8036 106.026 71.0659 103.572C75.7357 100.863 77.7225 95.8687 79.3527 90.9683C80.3122 88.0976 80.966 85.1081 82.0103 82.2715C82.3715 81.1052 83.0402 80.0578 83.9462 79.2395C85.1349 78.2883 86.7226 78.0165 88.0981 77.4135C93.2604 75.1459 96.0114 69.7698 97.7774 64.674C98.8727 61.5571 99.7472 58.3383 100.647 55.1619C101.61 51.8067 102.403 48.4052 103.025 44.9703C103.127 44.2314 101.878 43.8917 101.76 44.69Z" fill="#FAF1E1"/>
<path d="M34.0304 77.0565C47.3692 73.0478 61.7184 73.6593 75.244 76.411C78.9883 77.1669 82.7157 77.8463 86.5535 77.4981C87.3601 77.4217 87.4026 76.1562 86.5535 76.2242C83.0576 76.4248 79.551 76.1158 76.144 75.3069C72.7477 74.6275 69.4024 74.0415 65.9552 73.6083C59.0024 72.7436 51.9722 72.698 45.0088 73.4724C41.1648 73.9195 37.3667 74.6981 33.6568 75.7995C33.5073 75.8552 33.3842 75.9649 33.3117 76.107C33.2393 76.2491 33.2227 76.4132 33.2654 76.5669C33.3081 76.7206 33.4069 76.8527 33.5423 76.9371C33.6776 77.0214 33.8397 77.0519 33.9964 77.0225L34.0304 77.0565Z" fill="#FAF1E1"/>
<path d="M73.9032 81.9062C74.1111 82.1151 74.2883 82.3524 74.4296 82.6111L74.523 82.781C74.5336 82.8136 74.5478 82.845 74.5654 82.8744C74.6166 82.9979 74.6564 83.1259 74.6843 83.2566C74.6883 83.3131 74.6883 83.3699 74.6843 83.4265C74.6928 83.5452 74.6928 83.6644 74.6843 83.7832C74.6843 83.9021 74.6843 83.6728 74.6843 83.8341C74.6884 83.8822 74.6884 83.9305 74.6843 83.9785C74.6869 84.0238 74.6869 84.0691 74.6843 84.1144C74.6419 84.2333 74.6843 84.1144 74.6843 84.1144C74.6413 84.2021 74.5931 84.2872 74.54 84.3692C74.472 84.4711 74.6079 84.3012 74.54 84.3692L74.4126 84.4966L74.3107 84.59C74.2258 84.6664 74.4041 84.539 74.3107 84.59L74.1749 84.6749C74.1324 84.6749 73.9966 84.7599 74.1154 84.6749C74.0109 84.7178 73.903 84.7519 73.7928 84.7768H73.4022C73.3428 84.7768 73.2239 84.7768 73.3428 84.7768L72.9862 84.6919L72.8418 84.641C72.7324 84.5869 72.6274 84.5244 72.5277 84.4541L72.4682 84.4032C72.4336 84.3643 72.3968 84.3274 72.3579 84.2927L72.239 84.1569L72.1456 83.9955C72.1038 83.879 72.0698 83.7598 72.0437 83.6388C72.0437 83.5199 72.0437 83.7237 72.0437 83.6388C72.0437 83.5539 72.0437 83.5199 72.0437 83.4519C72.0395 83.4011 72.0395 83.3499 72.0437 83.2991V83.2141C72.0437 83.2651 72.0437 83.3076 72.0437 83.2141C72.0601 83.1074 72.0857 83.0023 72.1202 82.8999C72.1391 82.8391 72.1617 82.7795 72.1881 82.7215C72.1371 82.8404 72.1881 82.7215 72.1881 82.6621C72.2407 82.5591 72.3003 82.4598 72.3664 82.3648C72.3154 82.4073 72.4343 82.2629 72.3664 82.3648L72.5107 82.212L72.6296 82.1015L72.6975 82.0591L72.8334 81.9742H72.9013H72.9692H73.0711L73.2324 81.9232C73.3004 81.9232 73.3683 81.9232 73.2324 81.9232H73.5805C73.5126 81.9232 73.7249 81.9232 73.5805 81.9232L73.9202 82.0166C73.9881 82.0166 73.8777 82.0166 73.8692 82.0166L73.9796 82.0676L74.1239 82.1525C74.1239 82.1525 74.2853 82.2884 74.1834 82.1525L74.3107 82.2629C74.3516 82.3151 74.397 82.3634 74.4466 82.4073C74.4711 82.432 74.4912 82.4607 74.506 82.4922C74.5793 82.6006 74.6445 82.7141 74.7013 82.8319C74.7128 82.878 74.7269 82.9234 74.7438 82.9678L74.8032 83.1547C74.8032 83.2396 74.8032 83.316 74.8032 83.3925C74.8032 83.2821 74.8032 83.5029 74.8032 83.5369C74.8095 83.7038 74.8786 83.8622 74.9967 83.9803C75.1148 84.0984 75.2731 84.1675 75.44 84.1738C75.6082 84.1716 75.7689 84.1038 75.8878 83.9848C76.0068 83.8659 76.0746 83.7051 76.0768 83.5369C76.0774 82.8873 75.859 82.2564 75.4568 81.7463C75.0547 81.2362 74.4924 80.8766 73.8607 80.7257C73.2013 80.6347 72.531 80.78 71.9684 81.136C71.4059 81.492 70.9874 82.0356 70.7871 82.6706C70.5651 83.2926 70.5742 83.9738 70.8127 84.5897C71.0512 85.2056 71.5032 85.7152 72.0862 86.0253C72.6497 86.3524 73.3125 86.4647 73.9523 86.3414C74.5921 86.2181 75.1657 85.8675 75.5674 85.3544C75.9524 84.8092 76.119 84.1395 76.0343 83.4774C75.9011 82.5993 75.4905 81.7868 74.8626 81.1588C74.7419 81.0463 74.5823 80.9851 74.4173 80.988C74.2523 80.9909 74.0949 81.0577 73.9782 81.1744C73.8615 81.2911 73.7947 81.4486 73.7918 81.6136C73.7889 81.7786 73.8501 81.9383 73.9626 82.0591L73.9032 81.9062Z" fill="#FAF1E1"/>
<path d="M70.6585 89.7031C70.2526 89.5141 69.7982 89.4551 69.3575 89.5341C68.9167 89.6132 68.5112 89.8264 68.1962 90.1448C67.8719 90.4461 67.6581 90.8475 67.5888 91.2848C67.5196 91.7221 67.5989 92.1699 67.8141 92.5568C68.0295 92.9077 68.3337 93.1954 68.6961 93.3908C69.0584 93.5862 69.4659 93.6823 69.8774 93.6694C70.3369 93.6445 70.773 93.458 71.1085 93.1428C71.3866 92.8653 71.5808 92.515 71.6689 92.1321C71.7829 91.6824 71.7524 91.2081 71.5817 90.7767C71.411 90.3452 71.1088 89.9785 70.7179 89.7286C70.5734 89.6549 70.4063 89.6391 70.2506 89.6845C70.0948 89.7298 69.9623 89.8329 69.8799 89.9727C69.7976 90.1125 69.7717 90.2784 69.8075 90.4367C69.8433 90.5949 69.9382 90.7335 70.0726 90.8242L70.1491 90.8752H70.2L70.1321 90.8157C70.183 90.8667 70.234 90.9091 70.2764 90.9601L70.3698 91.1384C70.4208 91.2913 70.3698 91.2064 70.3698 91.2404C70.3889 91.3043 70.4031 91.3696 70.4123 91.4357C70.4123 91.5461 70.4123 91.2828 70.4123 91.3848V91.4782C70.4204 91.5459 70.4204 91.6143 70.4123 91.682C70.4123 91.682 70.4123 91.7415 70.4123 91.7754C70.4123 91.5631 70.4123 91.682 70.4123 91.733C70.4034 91.8027 70.3863 91.8711 70.3613 91.9368C70.3104 92.0642 70.3613 91.9368 70.3613 91.9368C70.3338 91.9997 70.2997 92.0595 70.2594 92.1151C70.1915 92.2171 70.3443 92.0217 70.2594 92.1151C70.2353 92.1336 70.2151 92.1567 70.2 92.1831L70.1321 92.2425C70.0811 92.2935 70.2679 92.1491 70.183 92.2425L70.0217 92.336C69.9283 92.3869 70.166 92.285 70.0217 92.336H69.9198H69.8264C69.733 92.336 69.9877 92.336 69.8264 92.336H69.6141L69.4104 92.285C69.2575 92.2001 69.3509 92.285 69.4104 92.285H69.3255L69.1387 92.1746L69.0623 92.1236C69.0623 92.1236 69.1726 92.2171 69.1302 92.1746C69.0711 92.1325 69.0195 92.0808 68.9773 92.0217C68.9264 91.9708 69.0622 92.1406 69.0198 92.0812L68.9688 92.0047C68.9497 91.9792 68.9353 91.9505 68.9264 91.9198V91.8349C68.9225 91.7982 68.9225 91.7612 68.9264 91.7245C68.9264 91.7245 68.9264 91.8858 68.9264 91.8179V91.5886C68.9264 91.5206 68.9264 91.699 68.9264 91.682C68.9264 91.665 68.9264 91.5122 68.9773 91.4697V91.4272C68.9773 91.3678 68.9773 91.5121 68.9773 91.5037V91.4187C68.9773 91.3508 69.0623 91.2998 69.0962 91.2319C69.1302 91.1639 69.0028 91.3423 69.0453 91.2998L69.1047 91.2404L69.1811 91.1554L69.266 91.079L69.2151 91.1215H69.266C69.33 91.073 69.3982 91.0304 69.4698 90.9941C69.5462 90.9516 69.4698 90.9941 69.4104 90.9941L69.5292 90.9516L69.75 90.8922C69.5972 90.9431 69.6141 90.8922 69.6736 90.8922H69.8434C69.8434 90.8922 70.0217 90.8922 69.9028 90.8922H70.0217C69.8689 90.8242 70.0896 90.8922 70.0217 90.8922C70.1654 90.9571 70.328 90.9664 70.4781 90.9183C70.6283 90.8703 70.7552 90.7682 70.8345 90.6319C70.9137 90.4955 70.9396 90.3347 70.9071 90.1804C70.8746 90.0261 70.786 89.8893 70.6585 89.7966V89.7031Z" fill="#FAF1E1"/>
<path d="M63.2125 92.0464H63.2635C63.3144 92.0464 63.1531 91.9445 63.1956 91.9954C63.2231 92.0187 63.2487 92.0443 63.272 92.0718C63.272 92.0718 63.272 92.0718 63.3144 92.1143C63.3569 92.1568 63.221 91.9784 63.272 92.0549L63.3314 92.1483C63.3467 92.1831 63.3637 92.2171 63.3824 92.2502C63.3824 92.2502 63.3229 92.0973 63.3824 92.1738V92.2332C63.4074 92.3076 63.4245 92.3845 63.4333 92.4625V92.2927C63.4589 92.4302 63.4589 92.5713 63.4333 92.7088V92.539C63.4381 92.5955 63.4381 92.6523 63.4333 92.7088C63.4333 92.7768 63.3229 92.9636 63.4333 92.7513C63.4141 92.7982 63.3914 92.8437 63.3654 92.8872L63.3144 92.9721C63.255 93.0485 63.4248 92.8447 63.3144 92.9211L63.2041 93.0316L63.1361 93.074L63.0597 93.1165C63.0088 93.1165 63.2295 93.0485 63.0597 93.1165H62.8814H63.0512C62.9386 93.1335 62.8242 93.1335 62.7116 93.1165H62.8814L62.6776 93.0655H62.6012C62.4993 93.0655 62.771 93.142 62.6012 93.0655L62.4399 92.9721L62.355 92.9127C62.4314 92.9721 62.5248 93.0231 62.355 92.9127L62.2191 92.7768C62.1512 92.6918 62.3125 92.9127 62.2191 92.7768C62.2022 92.7465 62.1823 92.7181 62.1597 92.6918C62.1525 92.658 62.138 92.6261 62.1173 92.5984C62.1173 92.5984 62.1852 92.7683 62.1173 92.6494C62.0923 92.5837 62.0752 92.5153 62.0663 92.4455V92.6154C62.0536 92.5252 62.0536 92.4338 62.0663 92.3436V92.5135C62.0714 92.4467 62.0857 92.381 62.1088 92.3181C62.1088 92.2587 62.1852 92.1823 62.1088 92.3181C62.1245 92.2878 62.1387 92.2566 62.1512 92.2247C62.1684 92.2041 62.1827 92.1812 62.1937 92.1568C62.1937 92.1058 62.321 92.0294 62.1937 92.1568C62.2361 92.1143 62.2786 92.0634 62.3295 92.0209L62.3974 91.9529L62.5588 91.8595C62.4399 91.8595 62.7031 91.7916 62.5588 91.8595H62.6352L62.8474 91.8171H62.6861C62.7935 91.8086 62.9014 91.8086 63.0088 91.8171H62.8389H62.9833H63.0427C63.1446 91.8171 62.8984 91.7491 63.0003 91.8171C63.0731 91.8583 63.1533 91.8848 63.2363 91.895C63.3194 91.9052 63.4036 91.8989 63.4842 91.8765C63.6054 91.8452 63.7144 91.7784 63.7974 91.6846C63.8803 91.5909 63.9334 91.4746 63.9498 91.3505C63.9662 91.2264 63.9452 91.1003 63.8895 90.9882C63.8338 90.8761 63.7459 90.7832 63.6371 90.7215C63.2602 90.5373 62.8312 90.4893 62.4229 90.5856C62.0653 90.6701 61.7369 90.849 61.472 91.1036C61.1844 91.3671 60.9931 91.7192 60.9285 92.1039C60.8639 92.4886 60.9296 92.8839 61.1153 93.2269C61.2964 93.5407 61.5579 93.8006 61.8728 93.9797C62.1877 94.1589 62.5447 94.2508 62.9069 94.246C63.2824 94.2289 63.6425 94.0919 63.9344 93.8549C64.2263 93.618 64.4346 93.2937 64.5286 92.9296C64.6403 92.5377 64.6267 92.1207 64.4897 91.7369C64.3527 91.3531 64.0991 91.0218 63.7644 90.7894C63.6924 90.737 63.6101 90.7003 63.523 90.6816C63.4358 90.663 63.3458 90.6629 63.2586 90.6813C63.1714 90.6996 63.089 90.7361 63.0168 90.7883C62.9446 90.8406 62.8842 90.9073 62.8394 90.9844C62.7946 91.0614 62.7665 91.147 62.7568 91.2357C62.7472 91.3243 62.7562 91.4139 62.7834 91.4988C62.8106 91.5837 62.8553 91.6619 62.9146 91.7284C62.9738 91.795 63.0464 91.8483 63.1276 91.885L63.2125 92.0464Z" fill="#FAF1E1"/>
</g>
<defs>
<clipPath id="clip0_183_4341">
<rect width="103" height="176" fill="white"/>
</clipPath>
</defs>
</svg>
