<svg width="370" height="33" viewBox="0 0 370 33" fill="none" xmlns="http://www.w3.org/2000/svg">
<g clip-path="url(#clip0_262_7473)">
<path d="M361.641 11.4493L361.623 11.8011H361.978H369.202H369.487L369.534 11.5226C369.708 10.5392 369.64 9.38241 369.43 8.30039C369.218 7.21868 368.857 6.18089 368.412 5.43773C367.534 3.96354 366.143 2.83067 364.269 2.02808C362.393 1.2142 360.111 0.814453 357.433 0.814453C354.798 0.814453 352.363 1.20995 350.127 2.00488C347.908 2.78938 346.052 3.899 344.574 5.33895C343.1 6.77515 342.165 8.46177 341.779 10.3933V10.3983C341.343 12.7629 341.892 14.6942 343.467 16.1272C345 17.5226 347.24 18.527 350.15 19.1645C350.152 19.1645 350.152 19.1645 350.152 19.1651L353.875 20.0049L353.882 20.0063C355.11 20.264 356.128 20.5591 356.939 20.8893L356.945 20.8913C357.763 21.2101 358.318 21.5824 358.65 21.9913C358.959 22.3706 359.07 22.8439 358.948 23.4546L358.946 23.4584C358.824 24.1189 358.481 24.7111 357.903 25.2391C357.318 25.7696 356.546 26.1938 355.573 26.5033L355.571 26.5037C354.613 26.8112 353.505 26.9678 352.243 26.9678C350.972 26.9678 349.881 26.8018 348.963 26.4769C348.739 26.3956 348.671 26.337 348.655 26.3177C348.653 26.317 348.653 26.3163 348.653 26.3156C348.651 26.3116 348.649 26.2994 348.649 26.2692C348.649 26.2605 348.651 26.2456 348.651 26.2269C348.655 26.1528 348.665 26.0115 348.651 25.8913C348.631 25.7077 348.563 25.5101 348.412 25.2948C348.242 25.0501 348.202 24.7046 348.242 24.2331C348.265 24.0024 348.303 23.7578 348.346 23.499C348.351 23.4645 348.358 23.4303 348.364 23.396C348.4 23.1714 348.441 22.9374 348.468 22.706L348.516 22.3289H348.134H338.855H338.568L338.521 22.6112C338.153 24.8787 338.422 26.8198 339.365 28.4068L339.368 28.4088C340.318 29.9768 341.831 31.1455 343.869 31.9269C345.903 32.7061 348.38 33.0902 351.286 33.0902C354.216 33.0902 356.808 32.7109 359.056 31.9463V31.9456C361.303 31.1716 363.131 30.0811 364.533 28.6663V28.6656C365.938 27.2381 366.834 25.5471 367.218 23.6003V23.5983C367.47 22.2744 367.425 21.0776 367.066 20.0198C366.71 18.971 366.096 18.0617 365.231 17.2947C364.387 16.5346 363.341 15.9006 362.106 15.3885C360.887 14.8784 359.521 14.4723 358.007 14.1684L354.945 13.5084L354.941 13.5077C354.223 13.36 353.543 13.1831 352.907 12.9774C352.279 12.7642 351.742 12.5197 351.292 12.2463C350.87 11.9726 350.572 11.6588 350.385 11.3094C350.22 10.985 350.177 10.5894 350.292 10.0994V10.0929L350.295 10.0863C350.407 9.49014 350.701 8.96102 351.189 8.49483C351.687 8.01757 352.365 7.63462 353.236 7.35597L353.238 7.35498C354.101 7.06879 355.133 6.92173 356.336 6.92173C358.115 6.92173 359.379 7.25774 360.187 7.87367L360.19 7.87496C360.571 8.1612 360.953 8.74645 361.233 9.4467C361.513 10.1408 361.666 10.8861 361.641 11.4493Z" fill="#F88F1F" stroke="#F88F1F"/>
<path d="M304.666 32.0819L311.741 1.4873H339.036L337.352 9.22001H319.83L318.819 12.9183H334.992L333.308 19.9786H317.471L316.123 25.6939H333.308L332.633 32.0819H304.666Z" fill="#F88F1F"/>
<path d="M272.316 32.0819L279.394 1.4873H306.689L305.002 9.22001H287.481L286.469 12.9183H302.645L300.959 19.9786H285.122L283.774 25.6939H300.959L300.286 32.0819H272.316Z" fill="#F88F1F"/>
<path d="M237.28 32.6836L237.195 33.0905H237.61H254.687C257.705 33.0905 260.338 32.7147 262.582 31.9549C264.828 31.1985 266.643 30.1643 268.013 28.8429L268.016 28.8422C269.384 27.5116 270.26 25.9893 270.628 24.2766C270.964 22.6977 270.829 21.298 270.185 20.105C269.551 18.9322 268.594 18.0293 267.327 17.3966C266.433 16.9427 265.462 16.6385 264.419 16.4819C265.422 16.2335 266.37 15.8937 267.264 15.4621C268.508 14.8613 269.56 14.0914 270.411 13.1503C271.283 12.2008 271.863 11.091 272.149 9.82654V9.82406C272.504 8.20165 272.303 6.74165 271.522 5.46925C270.741 4.18535 269.384 3.2107 267.508 2.52013C265.634 1.82648 263.209 1.4873 260.247 1.4873H244.245H243.972L243.916 1.75318L237.28 32.6836ZM261.087 21.4586L261.089 21.4633C261.43 22.0355 261.536 22.7031 261.381 23.4893C261.157 24.5334 260.489 25.3914 259.319 26.0584C258.157 26.7216 256.436 27.0719 254.12 27.0719H247.647L249.241 19.5281H256.032C257.385 19.5281 258.475 19.711 259.317 20.0613L259.319 20.0619C260.182 20.4142 260.757 20.8864 261.087 21.4586ZM261.602 12.6913L261.6 12.6916C261.006 13.2371 260.236 13.6684 259.286 13.9787C258.346 14.2788 257.321 14.4305 256.208 14.4305H250.361L251.856 7.44573H257.983C259.816 7.44573 261.089 7.78509 261.873 8.40069L261.877 8.40364C262.277 8.70817 262.534 9.05172 262.672 9.43223C262.81 9.81356 262.834 10.2561 262.728 10.7714C262.575 11.503 262.202 12.1414 261.602 12.6913Z" fill="#F88F1F" stroke="#F88F1F"/>
<path d="M226.855 11.4493L226.839 11.8011H227.191H234.418H234.7L234.75 11.5226C234.921 10.5392 234.856 9.38241 234.644 8.30039C234.434 7.21868 234.07 6.18089 233.628 5.43773C232.749 3.96354 231.357 2.83067 229.485 2.02808C227.609 1.2142 225.325 0.814453 222.647 0.814453C220.013 0.814453 217.577 1.20995 215.343 2.00488C213.123 2.78938 211.268 3.899 209.789 5.33895C208.315 6.77515 207.38 8.46177 206.995 10.3933L206.993 10.3983C206.558 12.7629 207.107 14.6942 208.682 16.1272C210.216 17.5226 212.455 18.527 215.365 19.1645C215.366 19.1645 215.366 19.1645 215.367 19.1651L219.091 20.0049L219.096 20.0063C220.326 20.264 221.343 20.5591 222.154 20.8893L222.159 20.8913C222.977 21.2101 223.533 21.5824 223.866 21.9913C224.175 22.3706 224.285 22.8439 224.163 23.4546L224.161 23.4584C224.038 24.1189 223.696 24.7111 223.117 25.2391C222.533 25.7696 221.762 26.1938 220.786 26.5033L220.786 26.5037C219.827 26.8112 218.72 26.9678 217.459 26.9678C216.188 26.9678 215.096 26.8018 214.177 26.4769C213.953 26.3956 213.885 26.337 213.869 26.3177C213.868 26.317 213.867 26.3163 213.867 26.3156C213.866 26.3116 213.864 26.2994 213.864 26.2692C213.864 26.2605 213.866 26.2456 213.867 26.2269C213.871 26.1528 213.879 26.0115 213.866 25.8913C213.844 25.7077 213.778 25.5101 213.625 25.2948C213.458 25.0501 213.416 24.7046 213.458 24.2331C213.479 24.0024 213.518 23.7578 213.561 23.499C213.566 23.4645 213.572 23.4303 213.578 23.396C213.615 23.1714 213.655 22.9374 213.683 22.706L213.73 22.3289H213.349H204.069H203.783L203.736 22.6112C203.367 24.8787 203.636 26.8198 204.58 28.4068L204.582 28.4088C205.533 29.9768 207.046 31.1455 209.084 31.9269C211.119 32.7061 213.594 33.0902 216.501 33.0902C219.431 33.0902 222.023 32.7109 224.271 31.9463L224.272 31.9456C226.516 31.1716 228.345 30.0811 229.747 28.6663L229.749 28.6656C231.151 27.2381 232.047 25.5471 232.433 23.6003V23.5983C232.684 22.2744 232.641 21.0776 232.282 20.0198C231.925 18.971 231.311 18.0617 230.447 17.2947C229.6 16.5346 228.557 15.9006 227.322 15.3885C226.103 14.8784 224.736 14.4723 223.221 14.1684L220.159 13.5084L220.156 13.5077C219.437 13.36 218.759 13.1831 218.122 12.9774C217.493 12.7642 216.956 12.5197 216.506 12.2463C216.084 11.9726 215.787 11.6588 215.599 11.3094C215.434 10.985 215.392 10.5894 215.506 10.0994L215.508 10.0929L215.509 10.0863C215.622 9.49014 215.915 8.96102 216.403 8.49483C216.903 8.01757 217.581 7.63462 218.45 7.35597L218.453 7.35498C219.316 7.06879 220.346 6.92173 221.55 6.92173C223.329 6.92173 224.594 7.25774 225.403 7.87367L225.404 7.87496C225.785 8.1612 226.166 8.74645 226.448 9.4467C226.726 10.1408 226.882 10.8861 226.855 11.4493Z" fill="#222222" stroke="#222222"/>
<path d="M195.181 11.4493L195.164 11.8011H195.517H202.743H203.026L203.075 11.5226C203.247 10.5392 203.181 9.38241 202.969 8.30039C202.758 7.21868 202.396 6.18089 201.953 5.43773C201.074 3.96354 199.683 2.83067 197.809 2.02808C195.933 1.2142 193.651 0.814453 190.972 0.814453C188.339 0.814453 185.902 1.20995 183.668 2.00488C181.448 2.78938 179.593 3.899 178.114 5.33895C176.64 6.77515 175.705 8.46177 175.32 10.3933L175.318 10.3983C174.884 12.7629 175.432 14.6942 177.007 16.1272C178.541 17.5226 180.78 18.527 183.691 19.1645C183.691 19.1645 183.691 19.1645 183.692 19.1651L187.416 20.0049L187.421 20.0063C188.651 20.264 189.668 20.5591 190.48 20.8893L190.484 20.8913C191.303 21.2101 191.859 21.5824 192.191 21.9913C192.5 22.3706 192.611 22.8439 192.488 23.4546L192.487 23.4584C192.363 24.1189 192.022 24.7111 191.442 25.2391C190.859 25.7696 190.087 26.1938 189.112 26.5033L189.111 26.5037C188.153 26.8112 187.045 26.9678 185.784 26.9678C184.513 26.9678 183.421 26.8018 182.502 26.4769C182.278 26.3956 182.211 26.337 182.194 26.3177C182.193 26.317 182.192 26.3163 182.192 26.3156C182.191 26.3116 182.189 26.2994 182.19 26.2692C182.19 26.2605 182.191 26.2456 182.192 26.2269C182.196 26.1528 182.205 26.0115 182.191 25.8913C182.17 25.7077 182.103 25.5101 181.951 25.2948C181.783 25.0501 181.742 24.7046 181.783 24.2331C181.804 24.0024 181.843 23.7578 181.886 23.499C181.891 23.4645 181.897 23.4303 181.903 23.396C181.94 23.1714 181.98 22.9374 182.008 22.706L182.056 22.3289H181.674H172.394H172.108L172.061 22.6112C171.693 24.8787 171.961 26.8198 172.905 28.4068L172.907 28.4088C173.859 29.9768 175.371 31.1455 177.41 31.9269C179.444 32.7061 181.919 33.0902 184.826 33.0902C187.756 33.0902 190.348 32.7109 192.596 31.9463L192.597 31.9456C194.842 31.1716 196.671 30.0811 198.072 28.6663L198.074 28.6656C199.477 27.2381 200.374 25.5471 200.758 23.6003V23.5983C201.01 22.2744 200.966 21.0776 200.607 20.0198C200.25 18.971 199.636 18.0617 198.771 17.2947C197.926 16.5346 196.882 15.9006 195.647 15.3885C194.428 14.8784 193.061 14.4723 191.546 14.1684L188.484 13.5084L188.481 13.5077C187.762 13.36 187.084 13.1831 186.447 12.9774C185.818 12.7642 185.281 12.5197 184.832 12.2463C184.41 11.9726 184.113 11.6588 183.924 11.3094C183.759 10.985 183.718 10.5894 183.831 10.0994L183.833 10.0929L183.834 10.0863C183.947 9.49014 184.241 8.96102 184.728 8.49483C185.228 8.01757 185.906 7.63462 186.775 7.35597L186.778 7.35498C187.641 7.06879 188.672 6.92173 189.875 6.92173C191.654 6.92173 192.919 7.25774 193.728 7.87367L193.73 7.87496C194.11 8.1612 194.492 8.74645 194.773 9.4467C195.052 10.1408 195.207 10.8861 195.181 11.4493Z" fill="#222222" stroke="#222222"/>
<path d="M138.88 32.0819L145.956 1.4873H173.25L171.565 9.22001H154.043L153.032 12.9183H169.206L167.522 19.9786H151.684L150.337 25.6939H167.522L166.848 32.0819H138.88Z" fill="#222222"/>
<path fill-rule="evenodd" clip-rule="evenodd" d="M111.586 2.15918L104.173 32.7538H114.282L116.64 21.6592H123.717C124.391 22.1077 125.739 23.4746 125.739 25.3573L125.401 32.7538H135.51L135.847 21.9953C135.847 21.3228 135.308 18.835 133.152 18.297H132.815C135.398 17.1763 140.902 13.3212 139.554 8.21086C138.993 6.19364 136.858 2.49538 132.141 2.49538L111.586 2.15918ZM119.336 9.2195L117.988 15.6074H126.412C128.21 14.3747 130.928 11.3712 127.423 9.2195H119.336Z" fill="#222222"/>
<path d="M71.4871 32.7543L78.2263 1.68848H95.0476C97.6389 1.68848 99.7665 2.18437 101.43 3.17611C103.106 4.15668 104.278 5.52175 104.49 6.06137C105.171 7.79975 105.328 9.80549 104.959 12.0787C104.579 14.363 103.753 16.3744 102.48 18.1126C101.217 19.84 99.5757 21.1882 97.5547 22.1578C95.5328 23.1275 93.199 23.6116 90.5518 23.6116H81.9243L85.0673 16.2803H90.5518C91.9589 16.2803 92.7326 16.4233 93.7267 15.9441C94.7315 15.4538 94.9855 15.1211 95.5772 14.2631C96.1696 13.3939 96.0854 13.2545 96.0854 12.0787C96.2755 10.9309 95.0745 9.89242 95.0476 9.89242C94.4006 9.22001 93.7267 9.22001 93.0528 9.22001C92.0418 9.22001 91.9481 9.22001 90.5518 9.22001H86.6504L81.2589 32.7543H71.4871Z" fill="#222222"/>
<path d="M53.9848 1.82324L56.6607 10.5646L63.0631 1.82324H74.8569L60.7043 16.6162L68.7914 32.7541H56.6607L53.2912 23.3403H52.6171L45.541 33.0902L33.4102 32.7541L47.4273 14.0489L41.8342 1.82324H53.9848Z" fill="#222222"/>
<path d="M15.888 15.6074L0.0506592 32.4177H6.78993L22.2903 15.9436L14.8771 2.15918H8.47475L15.888 15.6074Z" fill="#222222"/>
<path d="M26.3339 15.6076L10.1595 32.7541H17.2358L33.0731 16.6162L25.66 1.82324H19.5945L26.3339 15.6076Z" fill="#222222"/>
<path d="M36.78 15.6076L20.6057 32.7541H27.682L43.5192 16.6162L36.1061 1.82324H30.0407L36.78 15.6076Z" fill="#222222"/>
</g>
<defs>
<clipPath id="clip0_262_7473">
<rect width="370" height="33" fill="white"/>
</clipPath>
</defs>
</svg>
